<?xml version="1.0" encoding="utf-8"?>
<!-- Generator: Adobe Illustrator 15.0.0, SVG Export Plug-In . SVG Version: 6.00 Build 0)  -->
<!DOCTYPE svg PUBLIC "-//W3C//DTD SVG 1.1//EN" "http://www.w3.org/Graphics/SVG/1.1/DTD/svg11.dtd">
<svg version="1.1" id="Layer_1" xmlns="http://www.w3.org/2000/svg" xmlns:xlink="http://www.w3.org/1999/xlink" x="0px" y="0px"
	 width="753px" height="1050px" viewBox="0 0 753 1050" enable-background="new 0 0 753 1050" xml:space="preserve">
<g>
</g>
<g>
	<g>
		<path fill="#FFFFFF" d="M753,1010c0,22.092-17.908,40-40,40H40c-22.091,0-40-17.908-40-40V40C0,17.908,17.909,0,40,0h673
			c22.092,0,40,17.908,40,40V1010z"/>
	</g>
</g>
<g>
	<g>
		<path fill="#1B4A28" d="M669,986H84c-12.682,0-23-10.317-23-23V83c0-12.683,10.318-23,23-23h585c12.682,0,23,10.317,23,23v880
			C692,975.683,681.682,986,669,986z M84,66c-9.374,0-17,7.626-17,17v880c0,9.374,7.626,17,17,17h585c9.374,0,17-7.626,17-17V83
			c0-9.374-7.626-17-17-17H84z"/>
	</g>
</g>
<g>
	<g>
		<path fill="#1B4A28" d="M679,964c0,5.523-4.477,10-10,10H84c-5.523,0-10-4.477-10-10V83c0-5.522,4.477-10,10-10h585
			c5.523,0,10,4.478,10,10V964z"/>
	</g>
</g>
<g>
	<g>
		<g>
			<path fill="#FFFFFF" d="M131,127.607c-1,0.951-3.375,1.498-5.425,1.498c-6.257,0-11.228-5.072-11.228-11.33
				c0-6.256,4.92-11.328,11.177-11.328c2.049,0,4.476,0.546,5.476,1.498v-11.9c-1-0.465-3.481-0.711-5.425-0.711
				c-12.395,0-22.341,10.047-22.341,22.441s9.895,22.443,22.29,22.443c1.944,0,4.476-0.248,5.476-0.713V127.607z"/>
		</g>
	</g>
	<g>
		<g>
			<polygon fill="#FFFFFF" points="131,117 141.004,117 149.159,108 131,108 			"/>
		</g>
	</g>
	<g>
		<g>
			<polygon fill="#FFFFFF" points="131,119 141.004,119 149.159,127 131,127 			"/>
		</g>
	</g>
</g>
<g>
	<g>
		<g>
			<path fill="#FFFFFF" d="M177,173.182c-2,0.951-3.588,1.498-5.637,1.498c-6.257,0-11.333-5.072-11.333-11.329
				s5.079-11.329,11.336-11.329c2.049,0,3.635,0.547,5.635,1.498V141.62c-2-0.465-3.693-0.712-5.637-0.712
				c-12.395,0-22.447,10.048-22.447,22.442s10.054,22.442,22.449,22.442c1.944,0,3.635-0.247,5.635-0.712V173.182z"/>
		</g>
	</g>
	<g>
		<g>
			<polygon fill="#FFFFFF" points="177,162 186.579,162 194.733,154 177,154 			"/>
		</g>
	</g>
	<g>
		<g>
			<polygon fill="#FFFFFF" points="177,164 186.579,164 194.733,173 177,173 			"/>
		</g>
	</g>
</g>
<g>
	<g>
		<g>
			<path fill="#FFFFFF" d="M131,218.756c-1,0.952-3.375,1.499-5.425,1.499c-6.257,0-11.228-5.072-11.228-11.329
				c0-6.258,4.92-11.33,11.177-11.33c2.049,0,4.476,0.547,5.476,1.498v-11.898c-1-0.465-3.481-0.713-5.425-0.713
				c-12.395,0-22.341,10.049-22.341,22.443s9.895,22.441,22.29,22.441c1.944,0,4.476-0.246,5.476-0.711V218.756z"/>
		</g>
	</g>
	<g>
		<g>
			<polygon fill="#FFFFFF" points="131,208 141.004,208 149.159,200 131,200 			"/>
		</g>
	</g>
	<g>
		<g>
			<polygon fill="#FFFFFF" points="131,210 141.004,210 149.159,218 131,218 			"/>
		</g>
	</g>
</g>
<g>
	<g>
		<g>
			<path fill="#FFFFFF" d="M177,263.34c-2,0.952-3.588,1.499-5.637,1.499c-6.257,0-11.333-5.072-11.333-11.329
				c0-6.258,5.079-11.33,11.336-11.33c2.049,0,3.635,0.547,5.635,1.498v-11.898c-2-0.465-3.693-0.713-5.637-0.713
				c-12.395,0-22.447,10.049-22.447,22.443s10.054,22.441,22.449,22.441c1.944,0,3.635-0.246,5.635-0.711V263.34z"/>
		</g>
	</g>
	<g>
		<g>
			<polygon fill="#FFFFFF" points="177,253 186.579,253 194.733,244 177,244 			"/>
		</g>
	</g>
	<g>
		<g>
			<polygon fill="#FFFFFF" points="177,254 186.579,254 194.733,263 177,263 			"/>
		</g>
	</g>
</g>
<g>
	<g>
		<g>
			<path fill="#FFFFFF" d="M131,308.915c-1,0.952-3.375,1.499-5.425,1.499c-6.257,0-11.228-5.073-11.228-11.33
				s4.92-11.329,11.177-11.329c2.049,0,4.476,0.546,5.476,1.498v-11.899c-1-0.465-3.481-0.712-5.425-0.712
				c-12.395,0-22.341,10.048-22.341,22.442s9.895,22.442,22.29,22.442c1.944,0,4.476-0.247,5.476-0.712V308.915z"/>
		</g>
	</g>
	<g>
		<g>
			<polygon fill="#FFFFFF" points="131,298 141.004,298 149.159,290 131,290 			"/>
		</g>
	</g>
	<g>
		<g>
			<polygon fill="#FFFFFF" points="131,300 141.004,300 149.159,308 131,308 			"/>
		</g>
	</g>
</g>
<g>
	<g>
		<g>
			<path fill="#FFFFFF" d="M177,353.499c-2,0.952-3.588,1.498-5.637,1.498c-6.257,0-11.333-5.072-11.333-11.329
				s5.079-11.329,11.336-11.329c2.049,0,3.635,0.546,5.635,1.498v-11.899c-2-0.465-3.693-0.712-5.637-0.712
				c-12.395,0-22.447,10.048-22.447,22.442s10.054,22.442,22.449,22.442c1.944,0,3.635-0.247,5.635-0.712V353.499z"/>
		</g>
	</g>
	<g>
		<g>
			<polygon fill="#FFFFFF" points="177,343 186.579,343 194.733,334 177,334 			"/>
		</g>
	</g>
	<g>
		<g>
			<polygon fill="#FFFFFF" points="177,345 186.579,345 194.733,353 177,353 			"/>
		</g>
	</g>
</g>
<g>
	<g>
		<g>
			<path fill="#FFFFFF" d="M131,399.074c-1,0.951-3.375,1.498-5.425,1.498c-6.257,0-11.228-5.072-11.228-11.33
				c0-6.256,4.92-11.328,11.177-11.328c2.049,0,4.476,0.546,5.476,1.498v-11.9c-1-0.465-3.481-0.711-5.425-0.711
				c-12.395,0-22.341,10.047-22.341,22.441s9.895,22.442,22.29,22.442c1.944,0,4.476-0.247,5.476-0.712V399.074z"/>
		</g>
	</g>
	<g>
		<g>
			<polygon fill="#FFFFFF" points="131,388 141.004,388 149.159,380 131,380 			"/>
		</g>
	</g>
	<g>
		<g>
			<polygon fill="#FFFFFF" points="131,390 141.004,390 149.159,399 131,399 			"/>
		</g>
	</g>
</g>
<g>
	<g>
		<g>
			<path fill="#FFFFFF" d="M177,443.658c-2,0.951-3.588,1.497-5.637,1.497c-6.257,0-11.333-5.071-11.333-11.329
				c0-6.257,5.079-11.328,11.336-11.328c2.049,0,3.635,0.546,5.635,1.497v-11.898c-2-0.466-3.693-0.712-5.637-0.712
				c-12.395,0-22.447,10.047-22.447,22.441c0,12.396,10.054,22.442,22.449,22.442c1.944,0,3.635-0.247,5.635-0.712V443.658z"/>
		</g>
	</g>
	<g>
		<g>
			<polygon fill="#FFFFFF" points="177,433 186.579,433 194.733,425 177,425 			"/>
		</g>
	</g>
	<g>
		<g>
			<polygon fill="#FFFFFF" points="177,435 186.579,435 194.733,443 177,443 			"/>
		</g>
	</g>
</g>
<g>
	<g>
		<g>
			<path fill="#FFFFFF" d="M131,489.232c-1,0.952-3.375,1.498-5.425,1.498c-6.257,0-11.228-5.072-11.228-11.329
				s4.92-11.329,11.177-11.329c2.049,0,4.476,0.546,5.476,1.498v-11.898c-1-0.466-3.481-0.713-5.425-0.713
				c-12.395,0-22.341,10.047-22.341,22.442s9.895,22.442,22.29,22.442c1.944,0,4.476-0.247,5.476-0.713V489.232z"/>
		</g>
	</g>
	<g>
		<g>
			<polygon fill="#FFFFFF" points="131,479 141.004,479 149.159,470 131,470 			"/>
		</g>
	</g>
	<g>
		<g>
			<polygon fill="#FFFFFF" points="131,480 141.004,480 149.159,489 131,489 			"/>
		</g>
	</g>
</g>
<g>
	<g>
		<g>
			<path fill="#FFFFFF" d="M177,533.816c-2,0.952-3.588,1.498-5.637,1.498c-6.257,0-11.333-5.072-11.333-11.329
				s5.079-11.329,11.336-11.329c2.049,0,3.635,0.546,5.635,1.498v-11.898c-2-0.466-3.693-0.713-5.637-0.713
				c-12.395,0-22.447,10.047-22.447,22.442s10.054,22.442,22.449,22.442c1.944,0,3.635-0.247,5.635-0.713V533.816z"/>
		</g>
	</g>
	<g>
		<g>
			<polygon fill="#FFFFFF" points="177,523 186.579,523 194.733,515 177,515 			"/>
		</g>
	</g>
	<g>
		<g>
			<polygon fill="#FFFFFF" points="177,525 186.579,525 194.733,533 177,533 			"/>
		</g>
	</g>
</g>
<g>
	<g>
		<g>
			<path fill="#FFFFFF" d="M131,579.392c-1,0.951-3.375,1.497-5.425,1.497c-6.257,0-11.228-5.071-11.228-11.328
				c0-6.258,4.92-11.329,11.177-11.329c2.049,0,4.476,0.546,5.476,1.497V547.83c-1-0.465-3.481-0.712-5.425-0.712
				c-12.395,0-22.341,10.047-22.341,22.442c0,12.395,9.895,22.441,22.29,22.441c1.944,0,4.476-0.247,5.476-0.712V579.392z"/>
		</g>
	</g>
	<g>
		<g>
			<polygon fill="#FFFFFF" points="131,569 141.004,569 149.159,560 131,560 			"/>
		</g>
	</g>
	<g>
		<g>
			<polygon fill="#FFFFFF" points="131,570 141.004,570 149.159,579 131,579 			"/>
		</g>
	</g>
</g>
<g>
	<g>
		<g>
			<path fill="#FFFFFF" d="M177,623.975c-2,0.952-3.588,1.498-5.637,1.498c-6.257,0-11.333-5.071-11.333-11.329
				c0-6.257,5.079-11.328,11.336-11.328c2.049,0,3.635,0.546,5.635,1.497v-11.898c-2-0.465-3.693-0.712-5.637-0.712
				c-12.395,0-22.447,10.047-22.447,22.441c0,12.396,10.054,22.442,22.449,22.442c1.944,0,3.635-0.247,5.635-0.712V623.975z"/>
		</g>
	</g>
	<g>
		<g>
			<polygon fill="#FFFFFF" points="177,613 186.579,613 194.733,605 177,605 			"/>
		</g>
	</g>
	<g>
		<g>
			<polygon fill="#FFFFFF" points="177,615 186.579,615 194.733,623 177,623 			"/>
		</g>
	</g>
</g>
<g>
	<g>
		<g>
			<path fill="#FFFFFF" d="M131,669.55c-1,0.952-3.375,1.498-5.425,1.498c-6.257,0-11.228-5.072-11.228-11.329
				s4.92-11.329,11.177-11.329c2.049,0,4.476,0.546,5.476,1.498v-11.898c-1-0.466-3.481-0.713-5.425-0.713
				c-12.395,0-22.341,10.047-22.341,22.442s9.895,22.441,22.29,22.441c1.944,0,4.476-0.246,5.476-0.712V669.55z"/>
		</g>
	</g>
	<g>
		<g>
			<polygon fill="#FFFFFF" points="131,659 141.004,659 149.159,650 131,650 			"/>
		</g>
	</g>
	<g>
		<g>
			<polygon fill="#FFFFFF" points="131,661 141.004,661 149.159,669 131,669 			"/>
		</g>
	</g>
</g>
<g>
	<g>
		<g>
			<path fill="#FFFFFF" d="M177,714.134c-2,0.952-3.588,1.498-5.637,1.498c-6.257,0-11.333-5.072-11.333-11.329
				s5.079-11.329,11.336-11.329c2.049,0,3.635,0.546,5.635,1.498v-11.898c-2-0.466-3.693-0.713-5.637-0.713
				c-12.395,0-22.447,10.047-22.447,22.442c0,12.395,10.054,22.441,22.449,22.441c1.944,0,3.635-0.246,5.635-0.712V714.134z"/>
		</g>
	</g>
	<g>
		<g>
			<polygon fill="#FFFFFF" points="177,703 186.579,703 194.733,695 177,695 			"/>
		</g>
	</g>
	<g>
		<g>
			<polygon fill="#FFFFFF" points="177,705 186.579,705 194.733,714 177,714 			"/>
		</g>
	</g>
</g>
<g>
	<g>
		<g>
			<path fill="#FFFFFF" d="M131,759.709c-1,0.951-3.375,1.497-5.425,1.497c-6.257,0-11.228-5.071-11.228-11.329
				c0-6.257,4.92-11.328,11.177-11.328c2.049,0,4.476,0.545,5.476,1.497v-11.898c-1-0.465-3.481-0.712-5.425-0.712
				c-12.395,0-22.341,10.047-22.341,22.441c0,12.396,9.895,22.442,22.29,22.442c1.944,0,4.476-0.247,5.476-0.712V759.709z"/>
		</g>
	</g>
	<g>
		<g>
			<polygon fill="#FFFFFF" points="131,749 141.004,749 149.159,741 131,741 			"/>
		</g>
	</g>
	<g>
		<g>
			<polygon fill="#FFFFFF" points="131,751 141.004,751 149.159,759 131,759 			"/>
		</g>
	</g>
</g>
<g>
	<g>
		<g>
			<path fill="#FFFFFF" d="M177,804.293c-2,0.951-3.588,1.497-5.637,1.497c-6.257,0-11.333-5.071-11.333-11.329
				c0-6.257,5.079-11.328,11.336-11.328c2.049,0,3.635,0.545,5.635,1.497v-11.898c-2-0.466-3.693-0.712-5.637-0.712
				c-12.395,0-22.447,10.047-22.447,22.441c0,12.396,10.054,22.442,22.449,22.442c1.944,0,3.635-0.247,5.635-0.712V804.293z"/>
		</g>
	</g>
	<g>
		<g>
			<polygon fill="#FFFFFF" points="177,794 186.579,794 194.733,785 177,785 			"/>
		</g>
	</g>
	<g>
		<g>
			<polygon fill="#FFFFFF" points="177,795 186.579,795 194.733,804 177,804 			"/>
		</g>
	</g>
</g>
<g>
	<g>
		<g>
			<path fill="#FFFFFF" d="M131,849.867c-1,0.952-3.375,1.498-5.425,1.498c-6.257,0-11.228-5.072-11.228-11.329
				s4.92-11.329,11.177-11.329c2.049,0,4.476,0.546,5.476,1.498v-11.898c-1-0.466-3.481-0.713-5.425-0.713
				c-12.395,0-22.341,10.047-22.341,22.442s9.895,22.442,22.29,22.442c1.944,0,4.476-0.247,5.476-0.713V849.867z"/>
		</g>
	</g>
	<g>
		<g>
			<polygon fill="#FFFFFF" points="131,839 141.004,839 149.159,831 131,831 			"/>
		</g>
	</g>
	<g>
		<g>
			<polygon fill="#FFFFFF" points="131,841 141.004,841 149.159,849 131,849 			"/>
		</g>
	</g>
</g>
<g>
	<g>
		<g>
			<path fill="#FFFFFF" d="M177,894.451c-2,0.952-3.588,1.498-5.637,1.498c-6.257,0-11.333-5.072-11.333-11.329
				s5.079-11.329,11.336-11.329c2.049,0,3.635,0.546,5.635,1.498v-11.898c-2-0.466-3.693-0.713-5.637-0.713
				c-12.395,0-22.447,10.047-22.447,22.442s10.054,22.442,22.449,22.442c1.944,0,3.635-0.247,5.635-0.713V894.451z"/>
		</g>
	</g>
	<g>
		<g>
			<polygon fill="#FFFFFF" points="177,884 186.579,884 194.733,875 177,875 			"/>
		</g>
	</g>
	<g>
		<g>
			<polygon fill="#FFFFFF" points="177,885 186.579,885 194.733,894 177,894 			"/>
		</g>
	</g>
</g>
<g>
	<g>
		<g>
			<path fill="#FFFFFF" d="M131,940.025c-1,0.952-3.375,1.498-5.425,1.498c-6.257,0-11.228-5.071-11.228-11.329
				c0-6.257,4.92-11.328,11.177-11.328c2.049,0,4.476,0.545,5.476,1.497v-11.898c-1-0.465-3.481-0.712-5.425-0.712
				c-12.395,0-22.341,10.047-22.341,22.441c0,12.396,9.895,22.442,22.29,22.442c1.944,0,4.476-0.247,5.476-0.712V940.025z"/>
		</g>
	</g>
	<g>
		<g>
			<polygon fill="#FFFFFF" points="131,929 141.004,929 149.159,921 131,921 			"/>
		</g>
	</g>
	<g>
		<g>
			<polygon fill="#FFFFFF" points="131,931 141.004,931 149.159,940 131,940 			"/>
		</g>
	</g>
</g>
<g>
	<g>
		<polygon fill="#FFFFFF" points="86,162 95.579,162 103.733,154 86,154 		"/>
	</g>
</g>
<g>
	<g>
		<polygon fill="#FFFFFF" points="86,164 95.579,164 103.733,173 86,173 		"/>
	</g>
</g>
<g>
	<g>
		<polygon fill="#FFFFFF" points="86,253 95.579,253 103.733,244 86,244 		"/>
	</g>
</g>
<g>
	<g>
		<polygon fill="#FFFFFF" points="86,254 95.579,254 103.733,263 86,263 		"/>
	</g>
</g>
<g>
	<g>
		<polygon fill="#FFFFFF" points="86,343 95.579,343 103.733,334 86,334 		"/>
	</g>
</g>
<g>
	<g>
		<polygon fill="#FFFFFF" points="86,345 95.579,345 103.733,353 86,353 		"/>
	</g>
</g>
<g>
	<g>
		<polygon fill="#FFFFFF" points="86,433 95.579,433 103.733,425 86,425 		"/>
	</g>
</g>
<g>
	<g>
		<polygon fill="#FFFFFF" points="86,435 95.579,435 103.733,443 86,443 		"/>
	</g>
</g>
<g>
	<g>
		<polygon fill="#FFFFFF" points="86,523 95.579,523 103.733,515 86,515 		"/>
	</g>
</g>
<g>
	<g>
		<polygon fill="#FFFFFF" points="86,525 95.579,525 103.733,533 86,533 		"/>
	</g>
</g>
<g>
	<g>
		<polygon fill="#FFFFFF" points="86,613 95.579,613 103.733,605 86,605 		"/>
	</g>
</g>
<g>
	<g>
		<polygon fill="#FFFFFF" points="86,615 95.579,615 103.733,623 86,623 		"/>
	</g>
</g>
<g>
	<g>
		<polygon fill="#FFFFFF" points="86,703 95.579,703 103.733,695 86,695 		"/>
	</g>
</g>
<g>
	<g>
		<polygon fill="#FFFFFF" points="86,705 95.579,705 103.733,714 86,714 		"/>
	</g>
</g>
<g>
	<g>
		<polygon fill="#FFFFFF" points="86,794 95.579,794 103.733,785 86,785 		"/>
	</g>
</g>
<g>
	<g>
		<polygon fill="#FFFFFF" points="86,795 95.579,795 103.733,804 86,804 		"/>
	</g>
</g>
<g>
	<g>
		<polygon fill="#FFFFFF" points="86,884 95.579,884 103.733,875 86,875 		"/>
	</g>
</g>
<g>
	<g>
		<polygon fill="#FFFFFF" points="86,885 95.579,885 103.733,894 86,894 		"/>
	</g>
</g>
<g>
	<g>
		<g>
			<path fill="#FFFFFF" d="M222,127.607c-1,0.951-3.375,1.498-5.425,1.498c-6.257,0-11.228-5.072-11.228-11.33
				c0-6.256,4.92-11.328,11.177-11.328c2.049,0,4.476,0.546,5.476,1.498v-11.9c-1-0.465-3.481-0.711-5.425-0.711
				c-12.395,0-22.341,10.047-22.341,22.441s9.895,22.443,22.29,22.443c1.944,0,4.476-0.248,5.476-0.713V127.607z"/>
		</g>
	</g>
	<g>
		<g>
			<polygon fill="#FFFFFF" points="222,117 232.004,117 240.159,108 222,108 			"/>
		</g>
	</g>
	<g>
		<g>
			<polygon fill="#FFFFFF" points="222,119 232.004,119 240.159,127 222,127 			"/>
		</g>
	</g>
</g>
<g>
	<g>
		<g>
			<path fill="#FFFFFF" d="M268,173.182c-2,0.951-3.588,1.498-5.637,1.498c-6.257,0-11.333-5.072-11.333-11.329
				s5.079-11.329,11.336-11.329c2.049,0,3.635,0.547,5.635,1.498V141.62c-2-0.465-3.693-0.712-5.637-0.712
				c-12.395,0-22.447,10.048-22.447,22.442s10.054,22.442,22.449,22.442c1.944,0,3.635-0.247,5.635-0.712V173.182z"/>
		</g>
	</g>
	<g>
		<g>
			<polygon fill="#FFFFFF" points="268,162 277.579,162 285.733,154 268,154 			"/>
		</g>
	</g>
	<g>
		<g>
			<polygon fill="#FFFFFF" points="268,164 277.579,164 285.733,173 268,173 			"/>
		</g>
	</g>
</g>
<g>
	<g>
		<g>
			<path fill="#FFFFFF" d="M222,218.756c-1,0.952-3.375,1.499-5.425,1.499c-6.257,0-11.228-5.072-11.228-11.329
				c0-6.258,4.92-11.33,11.177-11.33c2.049,0,4.476,0.547,5.476,1.498v-11.898c-1-0.465-3.481-0.713-5.425-0.713
				c-12.395,0-22.341,10.049-22.341,22.443s9.895,22.441,22.29,22.441c1.944,0,4.476-0.246,5.476-0.711V218.756z"/>
		</g>
	</g>
	<g>
		<g>
			<polygon fill="#FFFFFF" points="222,208 232.004,208 240.159,200 222,200 			"/>
		</g>
	</g>
	<g>
		<g>
			<polygon fill="#FFFFFF" points="222,210 232.004,210 240.159,218 222,218 			"/>
		</g>
	</g>
</g>
<g>
	<g>
		<g>
			<path fill="#FFFFFF" d="M255.273,262.348c-2.587-2.076-4.244-5.264-4.244-8.838c0-6.258,5.079-11.33,11.336-11.33
				c2.049,0,3.635,0.547,5.635,1.498v-11.898c-2-0.465-3.693-0.713-5.637-0.713c-12.395,0-22.447,10.049-22.447,22.443
				c0,7.61,3.791,14.336,9.586,18.394L255.273,262.348z"/>
		</g>
	</g>
</g>
<g>
	<g>
		<g>
			<path fill="#FFFFFF" d="M222,308.915c-1,0.952-3.375,1.499-5.425,1.499c-6.257,0-11.228-5.073-11.228-11.33
				s4.92-11.329,11.177-11.329c2.049,0,4.476,0.546,5.476,1.498v-11.899c-1-0.465-3.481-0.712-5.425-0.712
				c-12.395,0-22.341,10.048-22.341,22.442s9.895,22.442,22.29,22.442c1.944,0,4.476-0.247,5.476-0.712V308.915z"/>
		</g>
	</g>
	<g>
		<g>
			<polygon fill="#FFFFFF" points="222,298 232.004,298 240.159,290 222,290 			"/>
		</g>
	</g>
	<g>
		<g>
			<polygon fill="#FFFFFF" points="222,300 232.004,300 236.246,304.161 234.937,308 222,308 			"/>
		</g>
	</g>
</g>
<g>
	<g>
		<g>
			<path fill="#FFFFFF" d="M222,399.074c-1,0.951-3.375,1.498-5.425,1.498c-6.257,0-11.228-5.072-11.228-11.33
				c0-6.256,4.92-11.328,11.177-11.328c2.049,0,4.476,0.546,5.476,1.498v-11.9c-1-0.465-3.481-0.711-5.425-0.711
				c-12.395,0-22.341,10.047-22.341,22.441s9.895,22.442,22.29,22.442c1.944,0,4.476-0.247,5.476-0.712V399.074z"/>
		</g>
	</g>
	<g>
		<g>
			<polygon fill="#FFFFFF" points="235,380 222,380 222,388 232.004,388 236.125,383.752 			"/>
		</g>
	</g>
	<g>
		<g>
			<polygon fill="#FFFFFF" points="222,390 232.004,390 240.159,399 222,399 			"/>
		</g>
	</g>
</g>
<g>
	<g>
		<g>
			<path fill="#FFFFFF" d="M249.231,415.624c-5.643,4.076-9.315,10.71-9.315,18.202c0,12.396,10.054,22.442,22.449,22.442
				c1.944,0,3.635-0.247,5.635-0.712v-11.898c-2,0.951-3.588,1.497-5.637,1.497c-6.257,0-11.333-5.071-11.333-11.329
				c0-3.388,1.489-6.428,3.848-8.504L249.231,415.624z"/>
		</g>
	</g>
</g>
<g>
	<g>
		<g>
			<path fill="#FFFFFF" d="M222,489.232c-1,0.952-3.375,1.498-5.425,1.498c-6.257,0-11.228-5.072-11.228-11.329
				s4.92-11.329,11.177-11.329c2.049,0,4.476,0.546,5.476,1.498v-11.898c-1-0.466-3.481-0.713-5.425-0.713
				c-12.395,0-22.341,10.047-22.341,22.442s9.895,22.442,22.29,22.442c1.944,0,4.476-0.247,5.476-0.713V489.232z"/>
		</g>
	</g>
	<g>
		<g>
			<polygon fill="#FFFFFF" points="222,479 232.004,479 240.159,470 222,470 			"/>
		</g>
	</g>
	<g>
		<g>
			<polygon fill="#FFFFFF" points="222,480 232.004,480 240.159,489 222,489 			"/>
		</g>
	</g>
</g>
<g>
	<g>
		<g>
			<path fill="#FFFFFF" d="M268,533.816c-2,0.952-3.588,1.498-5.637,1.498c-6.257,0-11.333-5.072-11.333-11.329
				s5.079-11.329,11.336-11.329c2.049,0,3.635,0.546,5.635,1.498v-11.898c-2-0.466-3.693-0.713-5.637-0.713
				c-12.395,0-22.447,10.047-22.447,22.442s10.054,22.442,22.449,22.442c1.944,0,3.635-0.247,5.635-0.713V533.816z"/>
		</g>
	</g>
	<g>
		<g>
			<polygon fill="#FFFFFF" points="268,523 277.579,523 285.733,515 268,515 			"/>
		</g>
	</g>
	<g>
		<g>
			<polygon fill="#FFFFFF" points="268,525 277.579,525 285.733,533 268,533 			"/>
		</g>
	</g>
</g>
<g>
	<g>
		<g>
			<path fill="#FFFFFF" d="M222,579.392c-1,0.951-3.375,1.497-5.425,1.497c-6.257,0-11.228-5.071-11.228-11.328
				c0-6.258,4.92-11.329,11.177-11.329c2.049,0,4.476,0.546,5.476,1.497V547.83c-1-0.465-3.481-0.712-5.425-0.712
				c-12.395,0-22.341,10.047-22.341,22.442c0,12.395,9.895,22.441,22.29,22.441c1.944,0,4.476-0.247,5.476-0.712V579.392z"/>
		</g>
	</g>
	<g>
		<g>
			<polygon fill="#FFFFFF" points="222,569 232.004,569 240.159,560 222,560 			"/>
		</g>
	</g>
	<g>
		<g>
			<polygon fill="#FFFFFF" points="222,570 232.004,570 240.159,579 222,579 			"/>
		</g>
	</g>
</g>
<g>
	<g>
		<g>
			<path fill="#FFFFFF" d="M268,602v-9.586c-2-0.465-3.693-0.712-5.637-0.712c-12.395,0-22.447,10.047-22.447,22.441
				c0,7.108,3.307,13.444,8.465,17.557l5.749-9.771c-1.922-2.03-3.101-4.771-3.101-7.786c0-6.257,5.079-11.328,11.336-11.328
				c1.506,0,2.761,0.2,4.115,0.735L268,602z"/>
		</g>
	</g>
</g>
<g>
	<g>
		<g>
			<path fill="#FFFFFF" d="M222,669.55c-1,0.952-3.375,1.498-5.425,1.498c-6.257,0-11.228-5.072-11.228-11.329
				s4.92-11.329,11.177-11.329c2.049,0,4.476,0.546,5.476,1.498v-11.898c-1-0.466-3.481-0.713-5.425-0.713
				c-12.395,0-22.341,10.047-22.341,22.442s9.895,22.441,22.29,22.441c1.944,0,4.476-0.246,5.476-0.712V669.55z"/>
		</g>
	</g>
	<g>
		<g>
			<polygon fill="#FFFFFF" points="222,659 232.004,659 240.159,650 222,650 			"/>
		</g>
	</g>
	<g>
		<g>
			<polygon fill="#FFFFFF" points="222,661 232.004,661 235.759,664.684 234.5,669 222,669 			"/>
		</g>
	</g>
</g>
<g>
	<g>
		<g>
			<path fill="#FFFFFF" d="M222,759.709c-1,0.951-3.375,1.497-5.425,1.497c-6.257,0-11.228-5.071-11.228-11.329
				c0-6.257,4.92-11.328,11.177-11.328c2.049,0,4.476,0.545,5.476,1.497v-11.898c-1-0.465-3.481-0.712-5.425-0.712
				c-12.395,0-22.341,10.047-22.341,22.441c0,12.396,9.895,22.442,22.29,22.442c1.944,0,4.476-0.247,5.476-0.712V759.709z"/>
		</g>
	</g>
	<g>
		<g>
			<polygon fill="#FFFFFF" points="236,741 222,741 222,749 232.004,749 236.956,744.081 			"/>
		</g>
	</g>
	<g>
		<g>
			<polygon fill="#FFFFFF" points="222,751 232.004,751 240.159,759 222,759 			"/>
		</g>
	</g>
</g>
<g>
	<g>
		<g>
			<path fill="#FFFFFF" d="M250.308,775.527c-6.248,3.984-10.392,10.976-10.392,18.934c0,12.396,10.054,22.442,22.449,22.442
				c1.944,0,3.635-0.247,5.635-0.712v-11.898c-2,0.951-3.588,1.497-5.637,1.497c-6.257,0-11.333-5.071-11.333-11.329
				c0-3.903,1.977-7.345,4.982-9.382L250.308,775.527z"/>
		</g>
	</g>
	<g>
		<g>
			<polygon fill="#FFFFFF" points="271,804 268,804 268,801 			"/>
		</g>
	</g>
</g>
<g>
	<g>
		<g>
			<path fill="#FFFFFF" d="M222,849.867c-1,0.952-3.375,1.498-5.425,1.498c-6.257,0-11.228-5.072-11.228-11.329
				s4.92-11.329,11.177-11.329c2.049,0,4.476,0.546,5.476,1.498v-11.898c-1-0.466-3.481-0.713-5.425-0.713
				c-12.395,0-22.341,10.047-22.341,22.442s9.895,22.442,22.29,22.442c1.944,0,4.476-0.247,5.476-0.713V849.867z"/>
		</g>
	</g>
	<g>
		<g>
			<polygon fill="#FFFFFF" points="222,839 232.004,839 240.159,831 222,831 			"/>
		</g>
	</g>
	<g>
		<g>
			<polygon fill="#FFFFFF" points="222,841 232.004,841 240.159,849 222,849 			"/>
		</g>
	</g>
</g>
<g>
	<g>
		<g>
			<path fill="#FFFFFF" d="M268,894.451c-2,0.952-3.588,1.498-5.637,1.498c-6.257,0-11.333-5.072-11.333-11.329
				s5.079-11.329,11.336-11.329c2.049,0,3.635,0.546,5.635,1.498v-11.898c-2-0.466-3.693-0.713-5.637-0.713
				c-12.395,0-22.447,10.047-22.447,22.442s10.054,22.442,22.449,22.442c1.944,0,3.635-0.247,5.635-0.713V894.451z"/>
		</g>
	</g>
	<g>
		<g>
			<polygon fill="#FFFFFF" points="268,884 277.579,884 285.733,875 268,875 			"/>
		</g>
	</g>
	<g>
		<g>
			<polygon fill="#FFFFFF" points="268,885 277.579,885 285.733,894 268,894 			"/>
		</g>
	</g>
</g>
<g>
	<g>
		<g>
			<path fill="#FFFFFF" d="M222,940.025c-1,0.952-3.375,1.498-5.425,1.498c-6.257,0-11.228-5.071-11.228-11.329
				c0-6.257,4.92-11.328,11.177-11.328c2.049,0,4.476,0.545,5.476,1.497v-11.898c-1-0.465-3.481-0.712-5.425-0.712
				c-12.395,0-22.341,10.047-22.341,22.441c0,12.396,9.895,22.442,22.29,22.442c1.944,0,4.476-0.247,5.476-0.712V940.025z"/>
		</g>
	</g>
	<g>
		<g>
			<polygon fill="#FFFFFF" points="222,929 232.004,929 240.159,921 222,921 			"/>
		</g>
	</g>
	<g>
		<g>
			<polygon fill="#FFFFFF" points="222,931 232.004,931 240.159,940 222,940 			"/>
		</g>
	</g>
</g>
<g>
	<g>
		<g>
			<path fill="#FFFFFF" d="M314,127.607c-1,0.951-3.375,1.498-5.425,1.498c-6.257,0-11.228-5.072-11.228-11.33
				c0-6.256,4.92-11.328,11.177-11.328c2.049,0,4.476,0.546,5.476,1.498v-11.9c-1-0.465-3.481-0.711-5.425-0.711
				c-12.395,0-22.341,10.047-22.341,22.441s9.895,22.443,22.29,22.443c1.944,0,4.476-0.248,5.476-0.713V127.607z"/>
		</g>
	</g>
	<g>
		<g>
			<polygon fill="#FFFFFF" points="314,117 324.004,117 332.159,108 314,108 			"/>
		</g>
	</g>
	<g>
		<g>
			<polygon fill="#FFFFFF" points="314,119 324.004,119 332.159,127 314,127 			"/>
		</g>
	</g>
</g>
<g>
	<g>
		<g>
			<path fill="#FFFFFF" d="M360,173.182c-2,0.951-3.588,1.498-5.637,1.498c-6.257,0-11.333-5.072-11.333-11.329
				s5.079-11.329,11.336-11.329c2.049,0,3.635,0.547,5.635,1.498V141.62c-2-0.465-3.693-0.712-5.637-0.712
				c-12.395,0-22.447,10.048-22.447,22.442s10.054,22.442,22.449,22.442c1.944,0,3.635-0.247,5.635-0.712V173.182z"/>
		</g>
	</g>
	<g>
		<g>
			<polygon fill="#FFFFFF" points="360,162 369.579,162 377.733,154 360,154 			"/>
		</g>
	</g>
	<g>
		<g>
			<polygon fill="#FFFFFF" points="360,164 369.579,164 377.733,173 360,173 			"/>
		</g>
	</g>
</g>
<g>
	<g>
		<g>
			<path fill="#FFFFFF" d="M300.81,217.129c-2.14-2.063-3.462-4.976-3.462-8.203c0-6.258,4.92-11.33,11.177-11.33
				c2.049,0,4.476,0.547,5.476,1.498v-11.898c-1-0.465-3.481-0.713-5.425-0.713c-12.395,0-22.341,10.049-22.341,22.443
				c0,5.55,1.984,10.629,5.288,14.546L300.81,217.129z"/>
		</g>
	</g>
	<g>
		<g>
			<polygon fill="#FFFFFF" points="314,208 316.5,208 330.06,202.06 332.159,200 314,200 			"/>
		</g>
	</g>
</g>
<g>
	<g>
		<g>
			<path fill="#FFFFFF" d="M291.495,464.913c-3.286,3.909-5.26,8.966-5.26,14.488c0,12.396,9.895,22.442,22.29,22.442
				c1.944,0,4.476-0.247,5.476-0.713v-11.898c-1,0.952-3.375,1.498-5.425,1.498c-6.257,0-11.228-5.072-11.228-11.329
				c0-3.128,1.23-5.96,3.242-8.011L291.495,464.913z"/>
		</g>
	</g>
	<g>
		<g>
			<polygon fill="#FFFFFF" points="314,480 316,480 329.061,485.582 332.159,489 314,489 			"/>
		</g>
	</g>
</g>
<g>
	<g>
		<g>
			<path fill="#FFFFFF" d="M299.121,575.695c-1.124-1.769-1.773-3.874-1.773-6.135c0-6.258,4.92-11.329,11.177-11.329
				c2.049,0,4.476,0.546,5.476,1.497V547.83c-1-0.465-3.481-0.712-5.425-0.712c-12.395,0-22.341,10.047-22.341,22.442
				c0,4.647,1.392,8.966,3.784,12.547L299.121,575.695z"/>
		</g>
	</g>
	<g>
		<g>
			<polygon fill="#FFFFFF" points="330,560 314,560 314,567 			"/>
		</g>
	</g>
</g>
<g>
	<g>
		<g>
			<path fill="#FFFFFF" d="M293.298,823.641c-4.354,4.096-7.063,9.926-7.063,16.396c0,12.396,9.895,22.442,22.29,22.442
				c1.944,0,4.476-0.247,5.476-0.713v-11.898c-1,0.952-3.375,1.498-5.425,1.498c-6.257,0-11.228-5.072-11.228-11.329
				c0-4.157,2.173-7.792,5.466-9.763L293.298,823.641z"/>
		</g>
	</g>
	<g>
		<g>
			<polygon fill="#FFFFFF" points="314,841 324.004,841 332.159,849 314,849 			"/>
		</g>
	</g>
</g>
<g>
	<g>
		<g>
			<path fill="#FFFFFF" d="M360,894.451c-2,0.952-3.588,1.498-5.637,1.498c-6.257,0-11.333-5.072-11.333-11.329
				s5.079-11.329,11.336-11.329c2.049,0,3.635,0.546,5.635,1.498v-11.898c-2-0.466-3.693-0.713-5.637-0.713
				c-12.395,0-22.447,10.047-22.447,22.442s10.054,22.442,22.449,22.442c1.944,0,3.635-0.247,5.635-0.713V894.451z"/>
		</g>
	</g>
	<g>
		<g>
			<polygon fill="#FFFFFF" points="360,884 369.579,884 377.733,875 360,875 			"/>
		</g>
	</g>
	<g>
		<g>
			<polygon fill="#FFFFFF" points="360,885 369.579,885 377.733,894 360,894 			"/>
		</g>
	</g>
</g>
<g>
	<g>
		<g>
			<path fill="#FFFFFF" d="M314,940.025c-1,0.952-3.375,1.498-5.425,1.498c-6.257,0-11.228-5.071-11.228-11.329
				c0-6.257,4.92-11.328,11.177-11.328c2.049,0,4.476,0.545,5.476,1.497v-11.898c-1-0.465-3.481-0.712-5.425-0.712
				c-12.395,0-22.341,10.047-22.341,22.441c0,12.396,9.895,22.442,22.29,22.442c1.944,0,4.476-0.247,5.476-0.712V940.025z"/>
		</g>
	</g>
	<g>
		<g>
			<polygon fill="#FFFFFF" points="314,929 324.004,929 332.159,921 314,921 			"/>
		</g>
	</g>
	<g>
		<g>
			<polygon fill="#FFFFFF" points="314,931 324.004,931 332.159,940 314,940 			"/>
		</g>
	</g>
</g>
<g>
	<g>
		<g>
			<path fill="#FFFFFF" d="M405,127.607c-1,0.951-3.375,1.498-5.425,1.498c-6.257,0-11.228-5.072-11.228-11.33
				c0-6.256,4.92-11.328,11.177-11.328c2.05,0,4.476,0.546,5.476,1.498v-11.9c-1-0.465-3.48-0.711-5.425-0.711
				c-12.396,0-22.341,10.047-22.341,22.441s9.895,22.443,22.29,22.443c1.944,0,4.476-0.248,5.476-0.713V127.607z"/>
		</g>
	</g>
	<g>
		<g>
			<polygon fill="#FFFFFF" points="405,117 415.004,117 423.158,108 405,108 			"/>
		</g>
	</g>
	<g>
		<g>
			<polygon fill="#FFFFFF" points="405,119 415.004,119 423.158,127 405,127 			"/>
		</g>
	</g>
</g>
<g>
	<g>
		<g>
			<path fill="#FFFFFF" d="M451,173.182c-2,0.951-3.588,1.498-5.637,1.498c-6.258,0-11.334-5.072-11.334-11.329
				s5.079-11.329,11.336-11.329c2.049,0,3.635,0.547,5.635,1.498V141.62c-2-0.465-3.693-0.712-5.637-0.712
				c-12.396,0-22.447,10.048-22.447,22.442s10.055,22.442,22.449,22.442c1.943,0,3.635-0.247,5.635-0.712V173.182z"/>
		</g>
	</g>
	<g>
		<g>
			<polygon fill="#FFFFFF" points="451,162 460.578,162 468.733,154 451,154 			"/>
		</g>
	</g>
	<g>
		<g>
			<polygon fill="#FFFFFF" points="451,164 460.578,164 468.733,173 451,173 			"/>
		</g>
	</g>
</g>
<g>
	<g>
		<g>
			<path fill="#FFFFFF" d="M405,195v-7.805c-1-0.465-3.48-0.713-5.425-0.713c-6.161,0-11.716,2.639-15.747,6.658L405,195z"/>
		</g>
	</g>
</g>
<g>
	<g>
		<g>
			<path fill="#FFFFFF" d="M439.461,545.643c1.882,0.512,3.861,0.785,5.904,0.785c1.943,0,3.635-0.247,5.635-0.713v-11.898
				c-2,0.952-3.588,1.498-5.637,1.498c-0.943,0-1.858-0.115-2.734-0.332L439.461,545.643z"/>
		</g>
		<g>
			<path fill="#FFFFFF" d="M442.945,512.916c0.779-0.17,1.59-0.26,2.42-0.26c2.049,0,3.635,0.546,5.635,1.498v-11.898
				c-2-0.466-3.693-0.713-5.637-0.713c-1.781,0-3.514,0.207-5.175,0.599L442.945,512.916z"/>
		</g>
	</g>
	<g>
		<g>
			<polygon fill="#FFFFFF" points="451,523 460.578,523 468.733,515 451,515 			"/>
		</g>
	</g>
	<g>
		<g>
			<polygon fill="#FFFFFF" points="451,525 460.578,525 468.733,533 451,533 			"/>
		</g>
	</g>
</g>
<g>
	<g>
		<path fill="#FFFFFF" d="M381.019,852.584c3.988,5.97,10.759,9.895,18.506,9.895c1.944,0,4.476-0.247,5.476-0.713v-11.898
			c-1,0.952-3.375,1.498-5.425,1.498L381.019,852.584z"/>
	</g>
</g>
<g>
	<g>
		<g>
			<path fill="#FFFFFF" d="M451,894.451c-2,0.952-3.588,1.498-5.637,1.498c-6.258,0-11.334-5.072-11.334-11.329
				s5.079-11.329,11.336-11.329c2.049,0,3.635,0.546,5.635,1.498v-11.898c-2-0.466-3.693-0.713-5.637-0.713
				c-12.396,0-22.447,10.047-22.447,22.442s10.055,22.442,22.449,22.442c1.943,0,3.635-0.247,5.635-0.713V894.451z"/>
		</g>
	</g>
	<g>
		<g>
			<polygon fill="#FFFFFF" points="451,884 460.578,884 468.733,875 451,875 			"/>
		</g>
	</g>
	<g>
		<g>
			<polygon fill="#FFFFFF" points="451,885 460.578,885 468.733,894 451,894 			"/>
		</g>
	</g>
</g>
<g>
	<g>
		<g>
			<path fill="#FFFFFF" d="M405,940.025c-1,0.952-3.375,1.498-5.425,1.498c-6.257,0-11.228-5.071-11.228-11.329
				c0-6.257,4.92-11.328,11.177-11.328c2.05,0,4.476,0.545,5.476,1.497v-11.898c-1-0.465-3.48-0.712-5.425-0.712
				c-12.396,0-22.341,10.047-22.341,22.441c0,12.396,9.895,22.442,22.29,22.442c1.944,0,4.476-0.247,5.476-0.712V940.025z"/>
		</g>
	</g>
	<g>
		<g>
			<polygon fill="#FFFFFF" points="405,929 415.004,929 423.158,921 405,921 			"/>
		</g>
	</g>
	<g>
		<g>
			<polygon fill="#FFFFFF" points="405,931 415.004,931 423.158,940 405,940 			"/>
		</g>
	</g>
</g>
<g>
	<g>
		<g>
			<path fill="#FFFFFF" d="M496,127.607c-1,0.951-3.375,1.498-5.425,1.498c-6.257,0-11.228-5.072-11.228-11.33
				c0-6.256,4.92-11.328,11.177-11.328c2.05,0,4.476,0.546,5.476,1.498v-11.9c-1-0.465-3.48-0.711-5.425-0.711
				c-12.396,0-22.341,10.047-22.341,22.441s9.895,22.443,22.29,22.443c1.944,0,4.476-0.248,5.476-0.713V127.607z"/>
		</g>
	</g>
	<g>
		<g>
			<polygon fill="#FFFFFF" points="496,117 506.004,117 514.158,108 496,108 			"/>
		</g>
	</g>
	<g>
		<g>
			<polygon fill="#FFFFFF" points="496,119 506.004,119 514.158,127 496,127 			"/>
		</g>
	</g>
</g>
<g>
	<g>
		<g>
			<path fill="#FFFFFF" d="M542,173.182c-2,0.951-3.588,1.498-5.637,1.498c-6.258,0-11.334-5.072-11.334-11.329
				s5.079-11.329,11.336-11.329c2.049,0,3.635,0.547,5.635,1.498V141.62c-2-0.465-3.693-0.712-5.637-0.712
				c-12.396,0-22.447,10.048-22.447,22.442s10.055,22.442,22.449,22.442c1.943,0,3.635-0.247,5.635-0.712V173.182z"/>
		</g>
	</g>
	<g>
		<g>
			<polygon fill="#FFFFFF" points="542,162 551.578,162 559.733,154 542,154 			"/>
		</g>
	</g>
	<g>
		<g>
			<polygon fill="#FFFFFF" points="542,164 551.578,164 559.733,173 542,173 			"/>
		</g>
	</g>
</g>
<g>
	<g>
		<g>
			<path fill="#FFFFFF" d="M496,218.756c-1,0.952-3.375,1.499-5.425,1.499c-6.257,0-11.228-5.072-11.228-11.329
				c0-6.258,4.92-11.33,11.177-11.33c2.05,0,4.476,0.547,5.476,1.498v-11.898c-1-0.465-3.48-0.713-5.425-0.713
				c-12.396,0-22.341,10.049-22.341,22.443s9.895,22.441,22.29,22.441c1.944,0,4.476-0.246,5.476-0.711V218.756z"/>
		</g>
	</g>
	<g>
		<g>
			<polygon fill="#FFFFFF" points="496,208 506.004,208 514.158,200 496,200 			"/>
		</g>
	</g>
	<g>
		<g>
			<polygon fill="#FFFFFF" points="496,210 506.004,210 514.158,218 496,218 			"/>
		</g>
	</g>
</g>
<g>
	<g>
		<g>
			<path fill="#FFFFFF" d="M542,263.34c-2,0.952-3.588,1.499-5.637,1.499c-6.258,0-11.334-5.072-11.334-11.329
				c0-6.258,5.079-11.33,11.336-11.33c2.049,0,3.635,0.547,5.635,1.498v-11.898c-2-0.465-3.693-0.713-5.637-0.713
				c-12.396,0-22.447,10.049-22.447,22.443s10.055,22.441,22.449,22.441c1.943,0,3.635-0.246,5.635-0.711V263.34z"/>
		</g>
	</g>
	<g>
		<g>
			<polygon fill="#FFFFFF" points="542,253 551.578,253 559.733,244 542,244 			"/>
		</g>
	</g>
	<g>
		<g>
			<polygon fill="#FFFFFF" points="542,254 551.578,254 559.733,263 542,263 			"/>
		</g>
	</g>
</g>
<g>
	<g>
		<g>
			<path fill="#FFFFFF" d="M530.535,365.346c1.859,0.499,3.814,0.765,5.83,0.765c1.943,0,3.635-0.247,5.635-0.712v-11.899
				c-2,0.952-3.588,1.498-5.637,1.498c-1.564,0-3.055-0.317-4.411-0.891L530.535,365.346z"/>
		</g>
		<g>
			<path fill="#FFFFFF" d="M531.745,333.32c1.411-0.631,2.976-0.981,4.62-0.981c2.049,0,3.635,0.546,5.635,1.498v-11.899
				c-2-0.465-3.693-0.712-5.637-0.712c-2.021,0-3.98,0.268-5.843,0.769L531.745,333.32z"/>
		</g>
	</g>
	<g>
		<g>
			<polygon fill="#FFFFFF" points="542,343 551.578,343 559.733,334 542,334 			"/>
		</g>
	</g>
	<g>
		<g>
			<polygon fill="#FFFFFF" points="542,345 551.578,345 559.733,353 542,353 			"/>
		</g>
	</g>
</g>
<g>
	<g>
		<g>
			<path fill="#FFFFFF" d="M542,443.658c-2,0.951-3.588,1.497-5.637,1.497c-6.258,0-11.334-5.071-11.334-11.329
				c0-6.257,5.079-11.328,11.336-11.328c2.049,0,3.635,0.546,5.635,1.497v-11.898c-2-0.466-3.693-0.712-5.637-0.712
				c-12.396,0-22.447,10.047-22.447,22.441c0,12.396,10.055,22.442,22.449,22.442c1.943,0,3.635-0.247,5.635-0.712V443.658z"/>
		</g>
	</g>
	<g>
		<g>
			<polygon fill="#FFFFFF" points="542,433 551.578,433 559.733,425 542,425 			"/>
		</g>
	</g>
	<g>
		<g>
			<polygon fill="#FFFFFF" points="542,435 551.578,435 559.733,443 542,443 			"/>
		</g>
	</g>
</g>
<g>
	<g>
		<g>
			<path fill="#FFFFFF" d="M496,489.232c-1,0.952-3.375,1.498-5.425,1.498c-6.257,0-11.228-5.072-11.228-11.329
				s4.92-11.329,11.177-11.329c2.05,0,4.476,0.546,5.476,1.498v-11.898c-1-0.466-3.48-0.713-5.425-0.713
				c-12.396,0-22.341,10.047-22.341,22.442s9.895,22.442,22.29,22.442c1.944,0,4.476-0.247,5.476-0.713V489.232z"/>
		</g>
	</g>
	<g>
		<g>
			<polygon fill="#FFFFFF" points="496,479 506.004,479 514.158,470 496,470 			"/>
		</g>
	</g>
	<g>
		<g>
			<polygon fill="#FFFFFF" points="496,480 506.004,480 514.158,489 496,489 			"/>
		</g>
	</g>
</g>
<g>
	<g>
		<g>
			<path fill="#FFFFFF" d="M542,533.816c-2,0.952-3.588,1.498-5.637,1.498c-6.258,0-11.334-5.072-11.334-11.329
				s5.079-11.329,11.336-11.329c2.049,0,3.635,0.546,5.635,1.498v-11.898c-2-0.466-3.693-0.713-5.637-0.713
				c-12.396,0-22.447,10.047-22.447,22.442s10.055,22.442,22.449,22.442c1.943,0,3.635-0.247,5.635-0.713V533.816z"/>
		</g>
	</g>
	<g>
		<g>
			<polygon fill="#FFFFFF" points="542,523 551.578,523 559.733,515 542,515 			"/>
		</g>
	</g>
	<g>
		<g>
			<polygon fill="#FFFFFF" points="542,525 551.578,525 559.733,533 542,533 			"/>
		</g>
	</g>
</g>
<g>
	<g>
		<g>
			<path fill="#FFFFFF" d="M496,579.392c-1,0.951-3.375,1.497-5.425,1.497c-6.257,0-11.228-5.071-11.228-11.328
				c0-6.258,4.92-11.329,11.177-11.329c2.05,0,4.476,0.546,5.476,1.497V547.83c-1-0.465-3.48-0.712-5.425-0.712
				c-12.396,0-22.341,10.047-22.341,22.442c0,12.395,9.895,22.441,22.29,22.441c1.944,0,4.476-0.247,5.476-0.712V579.392z"/>
		</g>
	</g>
	<g>
		<g>
			<polygon fill="#FFFFFF" points="496,569 506.004,569 514.158,560 496,560 			"/>
		</g>
	</g>
	<g>
		<g>
			<polygon fill="#FFFFFF" points="496,570 506.004,570 514.158,579 496,579 			"/>
		</g>
	</g>
</g>
<g>
	<g>
		<g>
			<path fill="#FFFFFF" d="M542,623.975c-2,0.952-3.588,1.498-5.637,1.498c-6.258,0-11.334-5.071-11.334-11.329
				c0-6.257,5.079-11.328,11.336-11.328c2.049,0,3.635,0.546,5.635,1.497v-11.898c-2-0.465-3.693-0.712-5.637-0.712
				c-12.396,0-22.447,10.047-22.447,22.441c0,12.396,10.055,22.442,22.449,22.442c1.943,0,3.635-0.247,5.635-0.712V623.975z"/>
		</g>
	</g>
	<g>
		<g>
			<polygon fill="#FFFFFF" points="542,613 551.578,613 559.733,605 542,605 			"/>
		</g>
	</g>
	<g>
		<g>
			<polygon fill="#FFFFFF" points="542,615 551.578,615 559.733,623 542,623 			"/>
		</g>
	</g>
</g>
<g>
	<g>
		<g>
			<path fill="#FFFFFF" d="M530.111,725.86c1.984,0.575,4.084,0.884,6.254,0.884c1.943,0,3.635-0.246,5.635-0.712v-11.898
				c-2,0.952-3.588,1.498-5.637,1.498c-1.735,0-3.379-0.39-4.85-1.087L530.111,725.86z"/>
		</g>
		<g>
			<path fill="#FFFFFF" d="M531.955,693.864c1.355-0.573,2.846-0.891,4.41-0.891c2.049,0,3.635,0.546,5.635,1.498v-11.898
				c-2-0.466-3.693-0.713-5.637-0.713c-1.848,0-3.644,0.223-5.361,0.644L531.955,693.864z"/>
		</g>
	</g>
	<g>
		<g>
			<polygon fill="#FFFFFF" points="542,703 551.578,703 559.733,695 542,695 			"/>
		</g>
	</g>
	<g>
		<g>
			<polygon fill="#FFFFFF" points="542,705 551.578,705 559.733,714 542,714 			"/>
		</g>
	</g>
</g>
<g>
	<g>
		<g>
			<path fill="#FFFFFF" d="M542,804.293c-2,0.951-3.588,1.497-5.637,1.497c-6.258,0-11.334-5.071-11.334-11.329
				c0-6.257,5.079-11.328,11.336-11.328c2.049,0,3.635,0.545,5.635,1.497v-11.898c-2-0.466-3.693-0.712-5.637-0.712
				c-12.396,0-22.447,10.047-22.447,22.441c0,12.396,10.055,22.442,22.449,22.442c1.943,0,3.635-0.247,5.635-0.712V804.293z"/>
		</g>
	</g>
	<g>
		<g>
			<polygon fill="#FFFFFF" points="542,794 551.578,794 559.733,785 542,785 			"/>
		</g>
	</g>
	<g>
		<g>
			<polygon fill="#FFFFFF" points="542,795 551.578,795 559.733,804 542,804 			"/>
		</g>
	</g>
</g>
<g>
	<g>
		<g>
			<path fill="#FFFFFF" d="M496,849.867c-1,0.952-3.375,1.498-5.425,1.498c-6.257,0-11.228-5.072-11.228-11.329
				s4.92-11.329,11.177-11.329c2.05,0,4.476,0.546,5.476,1.498v-11.898c-1-0.466-3.48-0.713-5.425-0.713
				c-12.396,0-22.341,10.047-22.341,22.442s9.895,22.442,22.29,22.442c1.944,0,4.476-0.247,5.476-0.713V849.867z"/>
		</g>
	</g>
	<g>
		<g>
			<polygon fill="#FFFFFF" points="496,839 506.004,839 514.158,831 496,831 			"/>
		</g>
	</g>
	<g>
		<g>
			<polygon fill="#FFFFFF" points="496,841 506.004,841 514.158,849 496,849 			"/>
		</g>
	</g>
</g>
<g>
	<g>
		<g>
			<path fill="#FFFFFF" d="M542,894.451c-2,0.952-3.588,1.498-5.637,1.498c-6.258,0-11.334-5.072-11.334-11.329
				s5.079-11.329,11.336-11.329c2.049,0,3.635,0.546,5.635,1.498v-11.898c-2-0.466-3.693-0.713-5.637-0.713
				c-12.396,0-22.447,10.047-22.447,22.442s10.055,22.442,22.449,22.442c1.943,0,3.635-0.247,5.635-0.713V894.451z"/>
		</g>
	</g>
	<g>
		<g>
			<polygon fill="#FFFFFF" points="542,884 551.578,884 559.733,875 542,875 			"/>
		</g>
	</g>
	<g>
		<g>
			<polygon fill="#FFFFFF" points="542,885 551.578,885 559.733,894 542,894 			"/>
		</g>
	</g>
</g>
<g>
	<g>
		<g>
			<path fill="#FFFFFF" d="M496,940.025c-1,0.952-3.375,1.498-5.425,1.498c-6.257,0-11.228-5.071-11.228-11.329
				c0-6.257,4.92-11.328,11.177-11.328c2.05,0,4.476,0.545,5.476,1.497v-11.898c-1-0.465-3.48-0.712-5.425-0.712
				c-12.396,0-22.341,10.047-22.341,22.441c0,12.396,9.895,22.442,22.29,22.442c1.944,0,4.476-0.247,5.476-0.712V940.025z"/>
		</g>
	</g>
	<g>
		<g>
			<polygon fill="#FFFFFF" points="496,929 506.004,929 514.158,921 496,921 			"/>
		</g>
	</g>
	<g>
		<g>
			<polygon fill="#FFFFFF" points="496,931 506.004,931 514.158,940 496,940 			"/>
		</g>
	</g>
</g>
<g>
	<g>
		<g>
			<path fill="#FFFFFF" d="M587,127.607c-1,0.951-3.375,1.498-5.425,1.498c-6.257,0-11.228-5.072-11.228-11.33
				c0-6.256,4.92-11.328,11.177-11.328c2.05,0,4.476,0.546,5.476,1.498v-11.9c-1-0.465-3.48-0.711-5.425-0.711
				c-12.396,0-22.341,10.047-22.341,22.441s9.895,22.443,22.29,22.443c1.944,0,4.476-0.248,5.476-0.713V127.607z"/>
		</g>
	</g>
	<g>
		<g>
			<polygon fill="#FFFFFF" points="587,117 597.004,117 605.158,108 587,108 			"/>
		</g>
	</g>
	<g>
		<g>
			<polygon fill="#FFFFFF" points="587,119 597.004,119 605.158,127 587,127 			"/>
		</g>
	</g>
</g>
<g>
	<g>
		<g>
			<path fill="#FFFFFF" d="M633,173.182c-2,0.951-3.588,1.498-5.637,1.498c-6.258,0-11.334-5.072-11.334-11.329
				s5.079-11.329,11.336-11.329c2.049,0,3.635,0.547,5.635,1.498V141.62c-2-0.465-3.693-0.712-5.637-0.712
				c-12.396,0-22.447,10.048-22.447,22.442s10.055,22.442,22.449,22.442c1.943,0,3.635-0.247,5.635-0.712V173.182z"/>
		</g>
	</g>
	<g>
		<g>
			<polygon fill="#FFFFFF" points="633,162 642.578,162 650.733,154 633,154 			"/>
		</g>
	</g>
	<g>
		<g>
			<polygon fill="#FFFFFF" points="633,164 642.578,164 650.733,173 633,173 			"/>
		</g>
	</g>
</g>
<g>
	<g>
		<g>
			<path fill="#FFFFFF" d="M587,218.756c-1,0.952-3.375,1.499-5.425,1.499c-6.257,0-11.228-5.072-11.228-11.329
				c0-6.258,4.92-11.33,11.177-11.33c2.05,0,4.476,0.547,5.476,1.498v-11.898c-1-0.465-3.48-0.713-5.425-0.713
				c-12.396,0-22.341,10.049-22.341,22.443s9.895,22.441,22.29,22.441c1.944,0,4.476-0.246,5.476-0.711V218.756z"/>
		</g>
	</g>
	<g>
		<g>
			<polygon fill="#FFFFFF" points="587,208 597.004,208 605.158,200 587,200 			"/>
		</g>
	</g>
	<g>
		<g>
			<polygon fill="#FFFFFF" points="587,210 597.004,210 605.158,218 587,218 			"/>
		</g>
	</g>
</g>
<g>
	<g>
		<g>
			<path fill="#FFFFFF" d="M633,263.34c-2,0.952-3.588,1.499-5.637,1.499c-6.258,0-11.334-5.072-11.334-11.329
				c0-6.258,5.079-11.33,11.336-11.33c2.049,0,3.635,0.547,5.635,1.498v-11.898c-2-0.465-3.693-0.713-5.637-0.713
				c-12.396,0-22.447,10.049-22.447,22.443s10.055,22.441,22.449,22.441c1.943,0,3.635-0.246,5.635-0.711V263.34z"/>
		</g>
	</g>
	<g>
		<g>
			<polygon fill="#FFFFFF" points="633,253 642.578,253 650.733,244 633,244 			"/>
		</g>
	</g>
	<g>
		<g>
			<polygon fill="#FFFFFF" points="633,254 642.578,254 650.733,263 633,263 			"/>
		</g>
	</g>
</g>
<g>
	<g>
		<g>
			<path fill="#FFFFFF" d="M587,308.915c-1,0.952-3.375,1.499-5.425,1.499c-6.257,0-11.228-5.073-11.228-11.33
				s4.92-11.329,11.177-11.329c2.05,0,4.476,0.546,5.476,1.498v-11.899c-1-0.465-3.48-0.712-5.425-0.712
				c-12.396,0-22.341,10.048-22.341,22.442s9.895,22.442,22.29,22.442c1.944,0,4.476-0.247,5.476-0.712V308.915z"/>
		</g>
	</g>
	<g>
		<g>
			<polygon fill="#FFFFFF" points="587,298 597.004,298 605.158,290 587,290 			"/>
		</g>
	</g>
	<g>
		<g>
			<polygon fill="#FFFFFF" points="587,300 597.004,300 605.158,308 587,308 			"/>
		</g>
	</g>
</g>
<g>
	<g>
		<g>
			<path fill="#FFFFFF" d="M633,353.499c-2,0.952-3.588,1.498-5.637,1.498c-6.258,0-11.334-5.072-11.334-11.329
				s5.079-11.329,11.336-11.329c2.049,0,3.635,0.546,5.635,1.498v-11.899c-2-0.465-3.693-0.712-5.637-0.712
				c-12.396,0-22.447,10.048-22.447,22.442s10.055,22.442,22.449,22.442c1.943,0,3.635-0.247,5.635-0.712V353.499z"/>
		</g>
	</g>
	<g>
		<g>
			<polygon fill="#FFFFFF" points="633,343 642.578,343 650.733,334 633,334 			"/>
		</g>
	</g>
	<g>
		<g>
			<polygon fill="#FFFFFF" points="633,345 642.578,345 650.733,353 633,353 			"/>
		</g>
	</g>
</g>
<g>
	<g>
		<g>
			<path fill="#FFFFFF" d="M587,399.074c-1,0.951-3.375,1.498-5.425,1.498c-6.257,0-11.228-5.072-11.228-11.33
				c0-6.256,4.92-11.328,11.177-11.328c2.05,0,4.476,0.546,5.476,1.498v-11.9c-1-0.465-3.48-0.711-5.425-0.711
				c-12.396,0-22.341,10.047-22.341,22.441s9.895,22.442,22.29,22.442c1.944,0,4.476-0.247,5.476-0.712V399.074z"/>
		</g>
	</g>
	<g>
		<g>
			<polygon fill="#FFFFFF" points="587,388 597.004,388 605.158,380 587,380 			"/>
		</g>
	</g>
	<g>
		<g>
			<polygon fill="#FFFFFF" points="587,390 597.004,390 605.158,399 587,399 			"/>
		</g>
	</g>
</g>
<g>
	<g>
		<g>
			<path fill="#FFFFFF" d="M633,443.658c-2,0.951-3.588,1.497-5.637,1.497c-6.258,0-11.334-5.071-11.334-11.329
				c0-6.257,5.079-11.328,11.336-11.328c2.049,0,3.635,0.546,5.635,1.497v-11.898c-2-0.466-3.693-0.712-5.637-0.712
				c-12.396,0-22.447,10.047-22.447,22.441c0,12.396,10.055,22.442,22.449,22.442c1.943,0,3.635-0.247,5.635-0.712V443.658z"/>
		</g>
	</g>
	<g>
		<g>
			<polygon fill="#FFFFFF" points="633,433 642.578,433 650.733,425 633,425 			"/>
		</g>
	</g>
	<g>
		<g>
			<polygon fill="#FFFFFF" points="633,435 642.578,435 650.733,443 633,443 			"/>
		</g>
	</g>
</g>
<g>
	<g>
		<g>
			<path fill="#FFFFFF" d="M587,489.232c-1,0.952-3.375,1.498-5.425,1.498c-6.257,0-11.228-5.072-11.228-11.329
				s4.92-11.329,11.177-11.329c2.05,0,4.476,0.546,5.476,1.498v-11.898c-1-0.466-3.48-0.713-5.425-0.713
				c-12.396,0-22.341,10.047-22.341,22.442s9.895,22.442,22.29,22.442c1.944,0,4.476-0.247,5.476-0.713V489.232z"/>
		</g>
	</g>
	<g>
		<g>
			<polygon fill="#FFFFFF" points="587,479 597.004,479 605.158,470 587,470 			"/>
		</g>
	</g>
	<g>
		<g>
			<polygon fill="#FFFFFF" points="587,480 597.004,480 605.158,489 587,489 			"/>
		</g>
	</g>
</g>
<g>
	<g>
		<g>
			<path fill="#FFFFFF" d="M633,533.816c-2,0.952-3.588,1.498-5.637,1.498c-6.258,0-11.334-5.072-11.334-11.329
				s5.079-11.329,11.336-11.329c2.049,0,3.635,0.546,5.635,1.498v-11.898c-2-0.466-3.693-0.713-5.637-0.713
				c-12.396,0-22.447,10.047-22.447,22.442s10.055,22.442,22.449,22.442c1.943,0,3.635-0.247,5.635-0.713V533.816z"/>
		</g>
	</g>
	<g>
		<g>
			<polygon fill="#FFFFFF" points="633,523 642.578,523 650.733,515 633,515 			"/>
		</g>
	</g>
	<g>
		<g>
			<polygon fill="#FFFFFF" points="633,525 642.578,525 650.733,533 633,533 			"/>
		</g>
	</g>
</g>
<g>
	<g>
		<g>
			<path fill="#FFFFFF" d="M587,579.392c-1,0.951-3.375,1.497-5.425,1.497c-6.257,0-11.228-5.071-11.228-11.328
				c0-6.258,4.92-11.329,11.177-11.329c2.05,0,4.476,0.546,5.476,1.497V547.83c-1-0.465-3.48-0.712-5.425-0.712
				c-12.396,0-22.341,10.047-22.341,22.442c0,12.395,9.895,22.441,22.29,22.441c1.944,0,4.476-0.247,5.476-0.712V579.392z"/>
		</g>
	</g>
	<g>
		<g>
			<polygon fill="#FFFFFF" points="587,569 597.004,569 605.158,560 587,560 			"/>
		</g>
	</g>
	<g>
		<g>
			<polygon fill="#FFFFFF" points="587,570 597.004,570 605.158,579 587,579 			"/>
		</g>
	</g>
</g>
<g>
	<g>
		<g>
			<path fill="#FFFFFF" d="M633,623.975c-2,0.952-3.588,1.498-5.637,1.498c-6.258,0-11.334-5.071-11.334-11.329
				c0-6.257,5.079-11.328,11.336-11.328c2.049,0,3.635,0.546,5.635,1.497v-11.898c-2-0.465-3.693-0.712-5.637-0.712
				c-12.396,0-22.447,10.047-22.447,22.441c0,12.396,10.055,22.442,22.449,22.442c1.943,0,3.635-0.247,5.635-0.712V623.975z"/>
		</g>
	</g>
	<g>
		<g>
			<polygon fill="#FFFFFF" points="633,613 642.578,613 650.733,605 633,605 			"/>
		</g>
	</g>
	<g>
		<g>
			<polygon fill="#FFFFFF" points="633,615 642.578,615 650.733,623 633,623 			"/>
		</g>
	</g>
</g>
<g>
	<g>
		<g>
			<path fill="#FFFFFF" d="M587,669.55c-1,0.952-3.375,1.498-5.425,1.498c-6.257,0-11.228-5.072-11.228-11.329
				s4.92-11.329,11.177-11.329c2.05,0,4.476,0.546,5.476,1.498v-11.898c-1-0.466-3.48-0.713-5.425-0.713
				c-12.396,0-22.341,10.047-22.341,22.442s9.895,22.441,22.29,22.441c1.944,0,4.476-0.246,5.476-0.712V669.55z"/>
		</g>
	</g>
	<g>
		<g>
			<polygon fill="#FFFFFF" points="587,659 597.004,659 605.158,650 587,650 			"/>
		</g>
	</g>
	<g>
		<g>
			<polygon fill="#FFFFFF" points="587,661 597.004,661 605.158,669 587,669 			"/>
		</g>
	</g>
</g>
<g>
	<g>
		<g>
			<path fill="#FFFFFF" d="M633,714.134c-2,0.952-3.588,1.498-5.637,1.498c-6.258,0-11.334-5.072-11.334-11.329
				s5.079-11.329,11.336-11.329c2.049,0,3.635,0.546,5.635,1.498v-11.898c-2-0.466-3.693-0.713-5.637-0.713
				c-12.396,0-22.447,10.047-22.447,22.442c0,12.395,10.055,22.441,22.449,22.441c1.943,0,3.635-0.246,5.635-0.712V714.134z"/>
		</g>
	</g>
	<g>
		<g>
			<polygon fill="#FFFFFF" points="633,703 642.578,703 650.733,695 633,695 			"/>
		</g>
	</g>
	<g>
		<g>
			<polygon fill="#FFFFFF" points="633,705 642.578,705 650.733,714 633,714 			"/>
		</g>
	</g>
</g>
<g>
	<g>
		<g>
			<path fill="#FFFFFF" d="M587,759.709c-1,0.951-3.375,1.497-5.425,1.497c-6.257,0-11.228-5.071-11.228-11.329
				c0-6.257,4.92-11.328,11.177-11.328c2.05,0,4.476,0.545,5.476,1.497v-11.898c-1-0.465-3.48-0.712-5.425-0.712
				c-12.396,0-22.341,10.047-22.341,22.441c0,12.396,9.895,22.442,22.29,22.442c1.944,0,4.476-0.247,5.476-0.712V759.709z"/>
		</g>
	</g>
	<g>
		<g>
			<polygon fill="#FFFFFF" points="587,749 597.004,749 605.158,741 587,741 			"/>
		</g>
	</g>
	<g>
		<g>
			<polygon fill="#FFFFFF" points="587,751 597.004,751 605.158,759 587,759 			"/>
		</g>
	</g>
</g>
<g>
	<g>
		<g>
			<path fill="#FFFFFF" d="M633,804.293c-2,0.951-3.588,1.497-5.637,1.497c-6.258,0-11.334-5.071-11.334-11.329
				c0-6.257,5.079-11.328,11.336-11.328c2.049,0,3.635,0.545,5.635,1.497v-11.898c-2-0.466-3.693-0.712-5.637-0.712
				c-12.396,0-22.447,10.047-22.447,22.441c0,12.396,10.055,22.442,22.449,22.442c1.943,0,3.635-0.247,5.635-0.712V804.293z"/>
		</g>
	</g>
	<g>
		<g>
			<polygon fill="#FFFFFF" points="633,794 642.578,794 650.733,785 633,785 			"/>
		</g>
	</g>
	<g>
		<g>
			<polygon fill="#FFFFFF" points="633,795 642.578,795 650.733,804 633,804 			"/>
		</g>
	</g>
</g>
<g>
	<g>
		<g>
			<path fill="#FFFFFF" d="M587,849.867c-1,0.952-3.375,1.498-5.425,1.498c-6.257,0-11.228-5.072-11.228-11.329
				s4.92-11.329,11.177-11.329c2.05,0,4.476,0.546,5.476,1.498v-11.898c-1-0.466-3.48-0.713-5.425-0.713
				c-12.396,0-22.341,10.047-22.341,22.442s9.895,22.442,22.29,22.442c1.944,0,4.476-0.247,5.476-0.713V849.867z"/>
		</g>
	</g>
	<g>
		<g>
			<polygon fill="#FFFFFF" points="587,839 597.004,839 605.158,831 587,831 			"/>
		</g>
	</g>
	<g>
		<g>
			<polygon fill="#FFFFFF" points="587,841 597.004,841 605.158,849 587,849 			"/>
		</g>
	</g>
</g>
<g>
	<g>
		<g>
			<path fill="#FFFFFF" d="M633,894.451c-2,0.952-3.588,1.498-5.637,1.498c-6.258,0-11.334-5.072-11.334-11.329
				s5.079-11.329,11.336-11.329c2.049,0,3.635,0.546,5.635,1.498v-11.898c-2-0.466-3.693-0.713-5.637-0.713
				c-12.396,0-22.447,10.047-22.447,22.442s10.055,22.442,22.449,22.442c1.943,0,3.635-0.247,5.635-0.713V894.451z"/>
		</g>
	</g>
	<g>
		<g>
			<polygon fill="#FFFFFF" points="633,884 642.578,884 650.733,875 633,875 			"/>
		</g>
	</g>
	<g>
		<g>
			<polygon fill="#FFFFFF" points="633,885 642.578,885 650.733,894 633,894 			"/>
		</g>
	</g>
</g>
<g>
	<g>
		<g>
			<path fill="#FFFFFF" d="M587,940.025c-1,0.952-3.375,1.498-5.425,1.498c-6.257,0-11.228-5.071-11.228-11.329
				c0-6.257,4.92-11.328,11.177-11.328c2.05,0,4.476,0.545,5.476,1.497v-11.898c-1-0.465-3.48-0.712-5.425-0.712
				c-12.396,0-22.341,10.047-22.341,22.441c0,12.396,9.895,22.442,22.29,22.442c1.944,0,4.476-0.247,5.476-0.712V940.025z"/>
		</g>
	</g>
	<g>
		<g>
			<polygon fill="#FFFFFF" points="587,929 597.004,929 605.158,921 587,921 			"/>
		</g>
	</g>
	<g>
		<g>
			<polygon fill="#FFFFFF" points="587,931 597.004,931 605.158,940 587,940 			"/>
		</g>
	</g>
</g>
<g>
	<g>
		<g>
			<path fill="#FFFFFF" d="M678,127.607c-1,0.951-3.375,1.498-5.425,1.498c-6.257,0-11.228-5.072-11.228-11.33
				c0-6.256,4.92-11.328,11.177-11.328c2.05,0,4.476,0.546,5.476,1.498v-11.9c-1-0.465-3.48-0.711-5.425-0.711
				c-12.396,0-22.341,10.047-22.341,22.441s9.895,22.443,22.29,22.443c1.944,0,4.476-0.248,5.476-0.713V127.607z"/>
		</g>
	</g>
</g>
<g>
	<g>
		<g>
			<path fill="#FFFFFF" d="M678,218.756c-1,0.952-3.375,1.499-5.425,1.499c-6.257,0-11.228-5.072-11.228-11.329
				c0-6.258,4.92-11.33,11.177-11.33c2.05,0,4.476,0.547,5.476,1.498v-11.898c-1-0.465-3.48-0.713-5.425-0.713
				c-12.396,0-22.341,10.049-22.341,22.443s9.895,22.441,22.29,22.441c1.944,0,4.476-0.246,5.476-0.711V218.756z"/>
		</g>
	</g>
</g>
<g>
	<g>
		<g>
			<path fill="#FFFFFF" d="M678,308.915c-1,0.952-3.375,1.499-5.425,1.499c-6.257,0-11.228-5.073-11.228-11.33
				s4.92-11.329,11.177-11.329c2.05,0,4.476,0.546,5.476,1.498v-11.899c-1-0.465-3.48-0.712-5.425-0.712
				c-12.396,0-22.341,10.048-22.341,22.442s9.895,22.442,22.29,22.442c1.944,0,4.476-0.247,5.476-0.712V308.915z"/>
		</g>
	</g>
</g>
<g>
	<g>
		<g>
			<path fill="#FFFFFF" d="M678,399.074c-1,0.951-3.375,1.498-5.425,1.498c-6.257,0-11.228-5.072-11.228-11.33
				c0-6.256,4.92-11.328,11.177-11.328c2.05,0,4.476,0.546,5.476,1.498v-11.9c-1-0.465-3.48-0.711-5.425-0.711
				c-12.396,0-22.341,10.047-22.341,22.441s9.895,22.442,22.29,22.442c1.944,0,4.476-0.247,5.476-0.712V399.074z"/>
		</g>
	</g>
</g>
<g>
	<g>
		<g>
			<path fill="#FFFFFF" d="M678,489.232c-1,0.952-3.375,1.498-5.425,1.498c-6.257,0-11.228-5.072-11.228-11.329
				s4.92-11.329,11.177-11.329c2.05,0,4.476,0.546,5.476,1.498v-11.898c-1-0.466-3.48-0.713-5.425-0.713
				c-12.396,0-22.341,10.047-22.341,22.442s9.895,22.442,22.29,22.442c1.944,0,4.476-0.247,5.476-0.713V489.232z"/>
		</g>
	</g>
</g>
<g>
	<g>
		<g>
			<path fill="#FFFFFF" d="M678,579.392c-1,0.951-3.375,1.497-5.425,1.497c-6.257,0-11.228-5.071-11.228-11.328
				c0-6.258,4.92-11.329,11.177-11.329c2.05,0,4.476,0.546,5.476,1.497V547.83c-1-0.465-3.48-0.712-5.425-0.712
				c-12.396,0-22.341,10.047-22.341,22.442c0,12.395,9.895,22.441,22.29,22.441c1.944,0,4.476-0.247,5.476-0.712V579.392z"/>
		</g>
	</g>
</g>
<g>
	<g>
		<g>
			<path fill="#FFFFFF" d="M678,669.55c-1,0.952-3.375,1.498-5.425,1.498c-6.257,0-11.228-5.072-11.228-11.329
				s4.92-11.329,11.177-11.329c2.05,0,4.476,0.546,5.476,1.498v-11.898c-1-0.466-3.48-0.713-5.425-0.713
				c-12.396,0-22.341,10.047-22.341,22.442s9.895,22.441,22.29,22.441c1.944,0,4.476-0.246,5.476-0.712V669.55z"/>
		</g>
	</g>
</g>
<g>
	<g>
		<g>
			<path fill="#FFFFFF" d="M678,759.709c-1,0.951-3.375,1.497-5.425,1.497c-6.257,0-11.228-5.071-11.228-11.329
				c0-6.257,4.92-11.328,11.177-11.328c2.05,0,4.476,0.545,5.476,1.497v-11.898c-1-0.465-3.48-0.712-5.425-0.712
				c-12.396,0-22.341,10.047-22.341,22.441c0,12.396,9.895,22.442,22.29,22.442c1.944,0,4.476-0.247,5.476-0.712V759.709z"/>
		</g>
	</g>
</g>
<g>
	<g>
		<g>
			<path fill="#FFFFFF" d="M678,849.867c-1,0.952-3.375,1.498-5.425,1.498c-6.257,0-11.228-5.072-11.228-11.329
				s4.92-11.329,11.177-11.329c2.05,0,4.476,0.546,5.476,1.498v-11.898c-1-0.466-3.48-0.713-5.425-0.713
				c-12.396,0-22.341,10.047-22.341,22.442s9.895,22.442,22.29,22.442c1.944,0,4.476-0.247,5.476-0.713V849.867z"/>
		</g>
	</g>
</g>
<g>
	<g>
		<g>
			<path fill="#FFFFFF" d="M678,940.025c-1,0.952-3.375,1.498-5.425,1.498c-6.257,0-11.228-5.071-11.228-11.329
				c0-6.257,4.92-11.328,11.177-11.328c2.05,0,4.476,0.545,5.476,1.497v-11.898c-1-0.465-3.48-0.712-5.425-0.712
				c-12.396,0-22.341,10.047-22.341,22.441c0,12.396,9.895,22.442,22.29,22.442c1.944,0,4.476-0.247,5.476-0.712V940.025z"/>
		</g>
	</g>
</g>
<g>
	<g>
		<path fill="#1B4A28" d="M381.549,852.998c-83.257,0-150.993-67.774-150.993-151.08c0-63.727,40.012-120.488,99.913-142.285
			c-7.509-10.463-11.679-23.139-11.679-36.54c0-13.482,4.202-26.208,11.772-36.691c-59.951-21.771-100.006-78.515-100.006-142.206
			c0-83.292,67.735-151.055,150.993-151.055c83.258,0,150.994,67.754,150.994,151.034c0,63.703-40.057,120.454-100.007,142.227
			c7.57,10.483,11.772,23.209,11.772,36.691c0,13.401-4.17,26.077-11.679,36.54c59.901,21.797,99.913,78.541,99.913,142.241
			C532.543,785.204,464.807,852.998,381.549,852.998z"/>
	</g>
</g>
<g>
	<g>
		<path fill="#FFFFFF" d="M381.549,577.979c-30.263,0-54.885-24.622-54.885-54.886s24.622-54.886,54.885-54.886
			c30.264,0,54.886,24.622,54.886,54.886S411.813,577.979,381.549,577.979z M381.549,472.459c-27.919,0-50.633,22.714-50.633,50.634
			s22.714,50.634,50.633,50.634c27.92,0,50.634-22.714,50.634-50.634S409.469,472.459,381.549,472.459z"/>
	</g>
</g>
<g>
	<g>
		<path fill="#FFFFFF" d="M426.956,479.853l-1.349-4.033c56.709-18.958,94.809-71.895,94.809-131.727
			c0-76.571-62.295-138.867-138.867-138.867c-76.571,0-138.867,62.296-138.867,138.867c0,59.832,38.101,112.769,94.809,131.727
			l-1.348,4.033c-58.445-19.539-97.712-74.097-97.712-135.76c0-78.916,64.203-143.119,143.119-143.119
			c78.916,0,143.119,64.203,143.119,143.119C524.668,405.756,485.4,460.313,426.956,479.853z"/>
	</g>
</g>
<g>
	<g>
		<path fill="#FFFFFF" d="M381.549,845.212c-78.916,0-143.119-64.203-143.119-143.119c0-61.662,39.268-116.22,97.712-135.76
			l1.349,4.033c-56.708,18.959-94.809,71.896-94.809,131.727c0,76.571,62.295,138.867,138.867,138.867
			c76.572,0,138.867-62.296,138.867-138.867c0-59.831-38.1-112.768-94.809-131.727l1.35-4.033
			c58.443,19.54,97.711,74.098,97.711,135.76C524.668,781.009,460.465,845.212,381.549,845.212z"/>
	</g>
</g>
<g id="path1933_2_">
	<g>
		<path fill="#FFFFFF" d="M268.514,302.355c0.012-4.493,5.486-5.067,6.02-5.029h8.409c5.096,0.092,5.772,3.767,5.772,3.767
			l0.046,2.028h-5.276c0,0,0.068-1.646-0.97-1.646c-1.036,0-7.395,0-7.395,0s-1.127-0.022-1.172,1.646
			c-0.04,1.42-0.046,4.081-0.046,4.081s-0.029,1.239,1.782,1.239c1.807,0,4.06,0,5.321,0c1.238,0,2.503-0.563,2.458-1.554
			c0,0-0.063,0,1.082,0c1.145,0,3.675,0,3.675,0v2.231c0,0,0.252,2.845-5.411,3.245c0,0-2.456,0.046-4.701,0.046
			c-2.241,0-3.354-0.163-4.475-0.293c-1.645-0.188-5.052-1.527-5.052-4.35C268.581,304.135,268.514,302.852,268.514,302.355z"/>
	</g>
</g>
<g id="rect5653_2_">
	<g>
		<path fill="#FFFFFF" d="M390.277,298.064c-3.03,0-5.469,1.824-5.469,4.086v6.415c0,2.262,2.438,4.086,5.469,4.086h9.754
			c3.029,0,5.456-1.824,5.456-4.086v-6.415c0-2.262-2.427-4.086-5.456-4.086H390.277z M392.777,301.626h4.921
			c1.495,0,2.701,0.84,2.701,1.896v3.649c0,1.057-1.206,1.909-2.701,1.909h-4.921c-1.495,0-2.689-0.853-2.689-1.909v-3.649
			C390.088,302.466,391.282,301.626,392.777,301.626z"/>
	</g>
</g>
<g id="path6547_2_">
	<g>
		<path fill="#FFFFFF" d="M436.771,298.197c-3.031,0-5.47,1.823-5.47,4.085v6.417c0,2.262,2.438,4.084,5.47,4.084h9.753
			c3.028,0,5.457-1.822,5.457-4.084v-6.417c0-2.262-2.429-4.085-5.457-4.085H436.771z M439.27,301.757h4.923
			c1.494,0,2.7,0.842,2.7,1.898v3.647c0,1.059-1.206,1.91-2.7,1.91h-4.923c-1.493,0-2.688-0.852-2.688-1.91v-3.647
			C436.581,302.599,437.776,301.757,439.27,301.757z"/>
	</g>
</g>
<g id="path6549_2_">
	<g>
		<path fill="#FFFFFF" d="M296.646,297.708c-3.029,0-5.468,1.822-5.468,4.084v6.417c0,2.26,2.439,4.084,5.468,4.084h9.754
			c3.029,0,5.458-1.824,5.458-4.084v-6.417c0-2.262-2.429-4.084-5.458-4.084H296.646z M299.146,301.268h4.921
			c1.496,0,2.702,0.841,2.702,1.898v3.648c0,1.057-1.206,1.906-2.702,1.906h-4.921c-1.494,0-2.689-0.85-2.689-1.906v-3.648
			C296.457,302.108,297.651,301.268,299.146,301.268z"/>
	</g>
</g>
<g id="path6555_2_">
	<g>
		<path fill="#FFFFFF" d="M347.046,311.974h-5.46v-8.233c0,0,0.043-2.169-2.341-2.169c-2.383,0-1.234,0.023-3.618,0.023
			c-2.383,0.52-2.362,2.687-2.362,2.687v7.741h-5.287v-8.235c0,0,0.042-2.165-2.34-2.165c-2.384,0-1.128-0.044-3.511-0.044
			c-2.384,0.521-2.34,2.816-2.34,2.816v7.585h-5.461v-13.936h5.056v1.38h0.448c0.507,0.023,0.595,0.052,1.203-0.654
			c0.861-0.999,2.804-1.063,2.804-1.063h3.943c0,0,3.879,0.048,4.514,2.477l0.32,0.004c0,0,1-2.437,3.819-2.45
			c0,0,0.757,0.031,2.669-0.046c5.645-0.222,7.818,2.637,7.973,4.634L347.046,311.974z"/>
	</g>
</g>
<g id="path1920_2_">
	<g>
		<path fill="#FFFFFF" d="M423.488,291.95l0.067,7.989c-2.175-2.175-3.739-1.953-3.739-1.953H413.1
			c-5.699,0.246-5.201,4.621-5.201,4.621l0.021,6.684c0.277,3.005,5.402,3.428,5.402,3.428s4.563,0,6.829,0
			c2.269,0,2.948-1.831,2.948-1.831h0.791v1.708h5.021V291.95H423.488z M416.179,301.657h4.454c1.621,0,2.923,0.786,2.923,1.755
			v3.916c0,0.967-1.302,1.752-2.923,1.752h-4.454c-1.62,0-2.923-0.785-2.923-1.752v-3.916
			C413.256,302.443,414.559,301.657,416.179,301.657z"/>
	</g>
</g>
<g id="path1928_2_">
	<g>
		<path fill="#FFFFFF" d="M454.396,298.371v14.258l5.417-0.044l-0.042-7.843c0,0,0.174-2.061,2.47-2.73l2.861-0.043
			c0,0,1.43,0,1.387,2.514l5.026-0.044v-2.903c0,0-0.304-3.425-3.64-3.425l-3.901-0.043c0,0-2.391-0.346-3.771,2.038h-0.779v-1.734
			H454.396z"/>
	</g>
</g>
<g id="path1930_2_">
	<g>
		<path fill="#FFFFFF" d="M482.698,298.087c-0.946,0.004-1.967,0.021-3.047,0.023c-5.538,0.011-5.669,4.864-5.669,4.864
			s-0.021,2.268-0.021,5.547c0,3.127,4.686,4.446,6.339,4.51c0.728,0.027,3.407,0,8.403,0c2.533-0.378,5.553-1.234,5.389-4.32
			h-5.267c-0.153,1.042-1.662,1.128-1.662,1.128s-5.799-0.021-6.105-0.021c-1.634,0-1.506-3.159-1.506-3.159h14.575
			c0,0,0.008-0.655,0.01-1.027c0.004-1.015-0.018-2.798-0.256-3.604C492.758,298.236,489.326,298.061,482.698,298.087z
			 M481.281,301.236c0.052-0.006,0.105-0.003,0.156,0c1.279,0,5.223,0,5.223,0s2.064,0.059,2.064,1.338c0,1.724,0,1.237,0,1.237
			l-9.219-0.044c0,0-0.005-0.48,0.068-1.239C479.623,302.033,480.508,301.295,481.281,301.236z"/>
	</g>
</g>
<g id="path2828_2_">
	<g>
		<path fill="#FFFFFF" d="M382.254,311.974h-5.46v-8.233c0,0,0.043-2.169-2.34-2.169c-2.384,0-1.235,0.023-3.619,0.023
			c-2.384,0.52-2.362,2.687-2.362,2.687v7.741h-5.287v-8.235c0,0,0.043-2.165-2.34-2.165s-1.126-0.044-3.511-0.044
			c-2.383,0.521-2.339,2.816-2.339,2.816v7.585h-5.461v-13.936h5.055v1.38h0.448c0.507,0.023,0.596,0.052,1.204-0.654
			c0.861-0.999,2.803-1.063,2.803-1.063h3.943c0,0,3.879,0.048,4.514,2.477l0.322,0.004c0,0,1-2.437,3.819-2.45
			c0,0,0.756,0.031,2.668-0.046c5.645-0.222,7.819,2.637,7.973,4.634L382.254,311.974z"/>
	</g>
</g>
<g>
	<g>
		<g>
			<path fill="#FFFFFF" d="M72,170.984v13.195c2.583,1.037,5.409,1.613,8.363,1.613c1.944,0,3.637-0.247,5.637-0.712v-11.899
				c-2,0.951-3.588,1.498-5.637,1.498C77.051,174.68,74.071,173.25,72,170.984z"/>
		</g>
	</g>
	<g>
		<g>
			<path fill="#FFFFFF" d="M80.363,140.908c-2.954,0-5.78,0.576-8.363,1.613v13.195c2.071-2.266,5.051-3.695,8.363-3.695
				c2.049,0,3.637,0.547,5.637,1.498V141.62C84,141.155,82.307,140.908,80.363,140.908z"/>
		</g>
	</g>
</g>
<g>
	<g>
		<polygon fill="#FFFFFF" points="177,73 186.579,73 194.733,82 177,82 		"/>
	</g>
</g>
<g>
	<g>
		<polygon fill="#FFFFFF" points="268,73 277.579,73 285.733,82 268,82 		"/>
	</g>
</g>
<g>
	<g>
		<polygon fill="#FFFFFF" points="360,73 369.579,73 377.733,82 360,82 		"/>
	</g>
</g>
<g>
	<g>
		<polygon fill="#FFFFFF" points="451,73 460.578,73 468.733,82 451,82 		"/>
	</g>
</g>
<g>
	<g>
		<polygon fill="#FFFFFF" points="542,73 551.578,73 559.733,82 542,82 		"/>
	</g>
</g>
<g>
	<g>
		<polygon fill="#FFFFFF" points="633,73 642.578,73 650.733,82 633,82 		"/>
	</g>
</g>
<g>
	<g>
		<g>
			<path fill="#FFFFFF" d="M72,79.984V93.18c2.583,1.037,5.409,1.613,8.363,1.613c1.944,0,3.637-0.247,5.637-0.712V82.182
				c-2,0.951-3.588,1.498-5.637,1.498C77.051,83.68,74.071,82.25,72,79.984z"/>
		</g>
	</g>
</g>
<g>
	<g>
		<g>
			<path fill="#FFFFFF" d="M72,260.984v13.195c2.583,1.037,5.409,1.613,8.363,1.613c1.944,0,3.637-0.247,5.637-0.712v-11.899
				c-2,0.951-3.588,1.498-5.637,1.498C77.051,264.68,74.071,263.25,72,260.984z"/>
		</g>
	</g>
	<g>
		<g>
			<path fill="#FFFFFF" d="M80.363,230.908c-2.954,0-5.78,0.576-8.363,1.613v13.195c2.071-2.266,5.051-3.695,8.363-3.695
				c2.049,0,3.637,0.547,5.637,1.498V231.62C84,231.155,82.307,230.908,80.363,230.908z"/>
		</g>
	</g>
</g>
<g>
	<g>
		<g>
			<path fill="#FFFFFF" d="M72,350.984v13.195c2.583,1.037,5.409,1.613,8.363,1.613c1.944,0,3.637-0.247,5.637-0.712v-11.899
				c-2,0.951-3.588,1.498-5.637,1.498C77.051,354.68,74.071,353.25,72,350.984z"/>
		</g>
	</g>
	<g>
		<g>
			<path fill="#FFFFFF" d="M80.363,320.908c-2.954,0-5.78,0.576-8.363,1.613v13.195c2.071-2.266,5.051-3.695,8.363-3.695
				c2.049,0,3.637,0.547,5.637,1.498V321.62C84,321.155,82.307,320.908,80.363,320.908z"/>
		</g>
	</g>
</g>
<g>
	<g>
		<g>
			<path fill="#FFFFFF" d="M72,440.984v13.195c2.583,1.037,5.409,1.613,8.363,1.613c1.944,0,3.637-0.247,5.637-0.712v-11.899
				c-2,0.951-3.588,1.498-5.637,1.498C77.051,444.68,74.071,443.25,72,440.984z"/>
		</g>
	</g>
	<g>
		<g>
			<path fill="#FFFFFF" d="M80.363,410.908c-2.954,0-5.78,0.576-8.363,1.613v13.195c2.071-2.266,5.051-3.695,8.363-3.695
				c2.049,0,3.637,0.547,5.637,1.498V411.62C84,411.155,82.307,410.908,80.363,410.908z"/>
		</g>
	</g>
</g>
<g>
	<g>
		<g>
			<path fill="#FFFFFF" d="M72,531.984v13.195c2.583,1.037,5.409,1.613,8.363,1.613c1.944,0,3.637-0.247,5.637-0.712v-11.899
				c-2,0.951-3.588,1.498-5.637,1.498C77.051,535.68,74.071,534.25,72,531.984z"/>
		</g>
	</g>
	<g>
		<g>
			<path fill="#FFFFFF" d="M80.363,501.908c-2.954,0-5.78,0.576-8.363,1.613v13.195c2.071-2.266,5.051-3.695,8.363-3.695
				c2.049,0,3.637,0.547,5.637,1.498V502.62C84,502.155,82.307,501.908,80.363,501.908z"/>
		</g>
	</g>
</g>
<g>
	<g>
		<g>
			<path fill="#FFFFFF" d="M72,621.984v13.195c2.583,1.037,5.409,1.613,8.363,1.613c1.944,0,3.637-0.247,5.637-0.712v-11.899
				c-2,0.951-3.588,1.498-5.637,1.498C77.051,625.68,74.071,624.25,72,621.984z"/>
		</g>
	</g>
	<g>
		<g>
			<path fill="#FFFFFF" d="M80.363,591.908c-2.954,0-5.78,0.576-8.363,1.613v13.195c2.071-2.266,5.051-3.695,8.363-3.695
				c2.049,0,3.637,0.547,5.637,1.498V592.62C84,592.155,82.307,591.908,80.363,591.908z"/>
		</g>
	</g>
</g>
<g>
	<g>
		<g>
			<path fill="#FFFFFF" d="M72,711.984v13.195c2.583,1.037,5.409,1.613,8.363,1.613c1.944,0,3.637-0.247,5.637-0.712v-11.899
				c-2,0.951-3.588,1.498-5.637,1.498C77.051,715.68,74.071,714.25,72,711.984z"/>
		</g>
	</g>
	<g>
		<g>
			<path fill="#FFFFFF" d="M80.363,681.908c-2.954,0-5.78,0.576-8.363,1.613v13.195c2.071-2.266,5.051-3.695,8.363-3.695
				c2.049,0,3.637,0.547,5.637,1.498V682.62C84,682.155,82.307,681.908,80.363,681.908z"/>
		</g>
	</g>
</g>
<g>
	<g>
		<g>
			<path fill="#FFFFFF" d="M72,801.984v13.195c2.583,1.037,5.409,1.613,8.363,1.613c1.944,0,3.637-0.247,5.637-0.712v-11.899
				c-2,0.951-3.588,1.498-5.637,1.498C77.051,805.68,74.071,804.25,72,801.984z"/>
		</g>
	</g>
	<g>
		<g>
			<path fill="#FFFFFF" d="M80.363,771.908c-2.954,0-5.78,0.576-8.363,1.613v13.195c2.071-2.266,5.051-3.695,8.363-3.695
				c2.049,0,3.637,0.547,5.637,1.498V772.62C84,772.155,82.307,771.908,80.363,771.908z"/>
		</g>
	</g>
</g>
<g>
	<g>
		<g>
			<path fill="#FFFFFF" d="M72,891.984v13.195c2.583,1.037,5.409,1.613,8.363,1.613c1.944,0,3.637-0.247,5.637-0.712v-11.899
				c-2,0.951-3.588,1.498-5.637,1.498C77.051,895.68,74.071,894.25,72,891.984z"/>
		</g>
	</g>
	<g>
		<g>
			<path fill="#FFFFFF" d="M80.363,861.908c-2.954,0-5.78,0.576-8.363,1.613v13.195c2.071-2.266,5.051-3.695,8.363-3.695
				c2.049,0,3.637,0.547,5.637,1.498V862.62C84,862.155,82.307,861.908,80.363,861.908z"/>
		</g>
	</g>
</g>
<g>
	<g>
		<polygon fill="#FFFFFF" points="177,973 186.579,973 194.733,964 177,964 		"/>
	</g>
</g>
<g>
	<g>
		<polygon fill="#FFFFFF" points="86,973 95.579,973 103.733,964 86,964 		"/>
	</g>
</g>
<g>
	<g>
		<polygon fill="#FFFFFF" points="268,973 277.579,973 285.733,964 268,964 		"/>
	</g>
</g>
<g>
	<g>
		<polygon fill="#FFFFFF" points="360,973 369.579,973 377.733,964 360,964 		"/>
	</g>
</g>
<g>
	<g>
		<polygon fill="#FFFFFF" points="451,973 460.578,973 468.733,964 451,964 		"/>
	</g>
</g>
<g>
	<g>
		<polygon fill="#FFFFFF" points="542,973 551.578,973 559.733,964 542,964 		"/>
	</g>
</g>
<g>
	<g>
		<polygon fill="#FFFFFF" points="633,973 642.578,973 650.733,964 633,964 		"/>
	</g>
</g>
<g>
	<g>
		<g>
			<path fill="#FFFFFF" d="M80.363,950.908c-2.954,0-5.78,0.576-8.363,1.613v13.195c2.071-2.266,5.051-3.695,8.363-3.695
				c2.049,0,3.637,0.547,5.637,1.498V951.62C84,951.155,82.307,950.908,80.363,950.908z"/>
		</g>
	</g>
</g>
<g>
	<g>
		<path fill="#FFFFFF" d="M616.024,72.351c0-0.118,0.015-0.233,0.018-0.351H604.92c-0.002,0.117-0.009,0.233-0.009,0.351
			c0,12.395,10.057,22.442,22.452,22.442c1.943,0,3.637-0.247,5.637-0.712V82.182c-2,0.951-3.588,1.498-5.637,1.498
			C621.105,83.68,616.024,78.607,616.024,72.351z"/>
	</g>
</g>
<g>
	<g>
		<path fill="#FFFFFF" d="M525.024,72.351c0-0.118,0.015-0.233,0.018-0.351H513.92c-0.002,0.117-0.009,0.233-0.009,0.351
			c0,12.395,10.057,22.442,22.452,22.442c1.943,0,3.637-0.247,5.637-0.712V82.182c-2,0.951-3.588,1.498-5.637,1.498
			C530.105,83.68,525.024,78.607,525.024,72.351z"/>
	</g>
</g>
<g>
	<g>
		<path fill="#FFFFFF" d="M434.024,72.351c0-0.118,0.015-0.233,0.018-0.351H422.92c-0.002,0.117-0.009,0.233-0.009,0.351
			c0,12.395,10.057,22.442,22.452,22.442c1.943,0,3.637-0.247,5.637-0.712V82.182c-2,0.951-3.588,1.498-5.637,1.498
			C439.105,83.68,434.024,78.607,434.024,72.351z"/>
	</g>
</g>
<g>
	<g>
		<path fill="#FFFFFF" d="M343.024,72.351c0-0.118,0.014-0.233,0.018-0.351H331.92c-0.002,0.117-0.009,0.233-0.009,0.351
			c0,12.395,10.057,22.442,22.452,22.442c1.944,0,3.637-0.247,5.637-0.712V82.182c-2,0.951-3.588,1.498-5.637,1.498
			C348.106,83.68,343.024,78.607,343.024,72.351z"/>
	</g>
</g>
<g>
	<g>
		<path fill="#FFFFFF" d="M251.024,72.351c0-0.118,0.014-0.233,0.018-0.351H239.92c-0.002,0.117-0.009,0.233-0.009,0.351
			c0,12.395,10.057,22.442,22.452,22.442c1.944,0,3.637-0.247,5.637-0.712V82.182c-2,0.951-3.588,1.498-5.637,1.498
			C256.106,83.68,251.024,78.607,251.024,72.351z"/>
	</g>
</g>
<g>
	<g>
		<path fill="#FFFFFF" d="M160.024,72.351c0-0.118,0.014-0.233,0.018-0.351H148.92c-0.002,0.117-0.009,0.233-0.009,0.351
			c0,12.395,10.057,22.442,22.452,22.442c1.944,0,3.637-0.247,5.637-0.712V82.182c-2,0.951-3.588,1.498-5.637,1.498
			C165.106,83.68,160.024,78.607,160.024,72.351z"/>
	</g>
</g>
<g>
	<g>
		<path fill="#FFFFFF" d="M616.056,973c0.324-5.967,5.26-10.709,11.308-10.709c2.049,0,3.637,0.546,5.637,1.498v-11.898
			c-2-0.466-3.693-0.713-5.637-0.713c-12.188,0-22.107,9.715-22.437,21.822H616.056z"/>
	</g>
</g>
<g>
	<g>
		<path fill="#FFFFFF" d="M525.056,973c0.324-5.967,5.26-10.709,11.308-10.709c2.049,0,3.637,0.546,5.637,1.498v-11.898
			c-2-0.466-3.693-0.713-5.637-0.713c-12.188,0-22.107,9.715-22.437,21.822H525.056z"/>
	</g>
</g>
<g>
	<g>
		<path fill="#FFFFFF" d="M434.043,974c-0.004-0.127-0.019-0.252-0.019-0.38c0-6.257,5.081-11.329,11.339-11.329
			c2.049,0,3.637,0.546,5.637,1.498v-11.898c-2-0.466-3.693-0.713-5.637-0.713c-12.396,0-22.447,10.047-22.447,22.442
			c0,0.128,0.002,0.253,0.005,0.38H434.043z"/>
	</g>
</g>
<g>
	<g>
		<path fill="#FFFFFF" d="M343.056,973c0.324-5.967,5.26-10.709,11.307-10.709c2.049,0,3.637,0.546,5.637,1.498v-11.898
			c-2-0.466-3.693-0.713-5.637-0.713c-12.187,0-22.106,9.715-22.436,21.822H343.056z"/>
	</g>
</g>
<g>
	<g>
		<path fill="#FFFFFF" d="M251.056,973c0.324-5.967,5.26-10.709,11.307-10.709c2.049,0,3.637,0.546,5.637,1.498v-11.898
			c-2-0.466-3.693-0.713-5.637-0.713c-12.187,0-22.106,9.715-22.436,21.822H251.056z"/>
	</g>
</g>
<g>
	<g>
		<path fill="#FFFFFF" d="M160.056,973c0.324-5.967,5.26-10.709,11.307-10.709c2.049,0,3.637,0.546,5.637,1.498v-11.898
			c-2-0.466-3.693-0.713-5.637-0.713c-12.187,0-22.106,9.715-22.436,21.822H160.056z"/>
	</g>
</g>
<g>
	<g>
		<path fill="#FFFFFF" d="M392,540.565c-3,1.662-6.091,2.614-9.668,2.614c-10.923,0-19.701-8.854-19.701-19.778
			s8.738-19.778,19.661-19.778c3.577,0,6.708,0.952,9.708,2.614v-20.772c-3-0.813-6.273-1.245-9.668-1.245
			c-21.641,0-39.103,17.541-39.103,39.182s17.422,39.182,39.063,39.182c3.395,0,6.708-0.432,9.708-1.246V540.565z"/>
	</g>
</g>
<g>
	<g>
		<polygon fill="#FFFFFF" points="392,522 409.069,522 423.307,507 392,507 		"/>
	</g>
</g>
<g>
	<g>
		<polygon fill="#FFFFFF" points="392,525 409.069,525 423.307,540 392,540 		"/>
	</g>
</g>
<g>
	<polygon fill="#FFFFFF" points="415.273,849 423.158,849 421.538,847.41 	"/>
</g>
<g>
	<polygon fill="#FFFFFF" points="314,836.41 314,839 318.449,839 	"/>
</g>
<g id="path1888">
	<path sodipodi:nodetypes="ccccc" fill="#FFFFFF" d="M384.373,339.087L380.688,326l12.838-3.927l4.271,13.087L384.373,339.087z"/>
</g>
<g id="path1960">
	<path sodipodi:nodetypes="csssssscccssssssssssccccccssc" fill="#FFFFFF" d="M427.506,401.493
		c-4.961-0.518-8.846-2.229-12.682-5.589c-5.314-4.651-8.036-9.313-9.382-16.068c-0.571-2.871-0.574-9.441-0.004-12.087
		c1.216-5.64,4.146-11.143,8.197-15.392c2.331-2.443,4.255-3.897,6.798-5.136c3.058-1.493,5.042-1.947,9.081-2.079
		c6.648-0.22,11.107,0.864,16.675,4.05l2.455,1.406v11.026c-0.969-0.164-2.714,0.432-3.399-0.337c0-0.666-1.643-5.245-2.399-6.692
		c-1.713-3.271-4.46-5.75-7.57-6.828c-1.22-0.423-1.941-0.51-4.192-0.502c-4.514,0.017-7.496,1.104-9.806,3.58
		c-2.467,2.644-3.637,6.059-4.121,12.035c-0.313,3.84-0.301,19.414,0.016,22.357c0.888,8.245,3.769,12.465,9.492,13.91
		c2.112,0.534,6.395,0.343,8.253-0.366c1.626-0.621,3.149-1.974,3.908-3.471c0.931-1.839,1.2-3.706,1.204-8.366l0.004-4.248h-8.157
		v-2.041h19.999l-0.159,2.322c-0.306,4.471-1.151,7.295-3.064,10.22c-2.656,4.06-7.507,7.118-12.81,8.074
		C433.881,401.627,429.815,401.734,427.506,401.493z"/>
</g>
<g id="path1958">
	<path sodipodi:nodetypes="ccssccccccccccc" fill="#FFFFFF" d="M264.887,400.598l20.105-55.402l2.794,0.045
		c0.208,0.004,18.558,52.742,18.558,53.016l5.892,0.075v2.267h-15.809l-5.826-16.32l-17.427,0.119l-5.747,16.201H264.887z
		 M289.583,381.848l-7.355-22.009l-8.049,22.178L289.583,381.848z"/>
</g>
<g id="path1954">
	<path sodipodi:nodetypes="cccccccccccccccccc" fill="#FFFFFF" d="M315.409,348.48h-7.932v-2.038h20.961l11.188,36.295
		l11.688-36.295h12.584v51.889h7.478v2.267h-17.901l-0.117-50.489l-16.217,50.489h-2.882l-16.114-50.644l-0.017,50.644h-2.719
		V348.48z"/>
</g>
<g id="path1952">
	<path sodipodi:nodetypes="ccccccccccc" fill="#FFFFFF" d="M374.775,398.331h7.478v-51.889h18.354v2.038h-7.931v49.851h7.931v2.267
		h-25.832V398.331z"/>
</g>
<g id="path1970">
	<path sodipodi:nodetypes="ccssccccccccccc" fill="#FFFFFF" d="M453.65,400.598l20.106-55.402l2.794,0.045
		c0.207,0.004,18.558,52.742,18.558,53.016l5.892,0.075v2.267h-15.809l-5.826-16.32l-17.426,0.119l-5.747,16.201H453.65z
		 M478.346,381.848l-7.354-22.009l-8.051,22.178L478.346,381.848z"/>
</g>
<g id="path1933_1_">
	<g>
		<path fill="#FFFFFF" d="M495.479,745.672c-0.012,4.493-5.486,5.067-6.02,5.029h-8.409c-5.097-0.092-5.772-3.767-5.772-3.767
			l-0.045-2.028h5.275c0,0-0.068,1.646,0.971,1.646c1.035,0,7.395,0,7.395,0s1.127,0.022,1.172-1.646
			c0.039-1.42,0.045-4.081,0.045-4.081s0.029-1.239-1.781-1.239c-1.807,0-4.061,0-5.32,0c-1.238,0-2.504,0.563-2.458,1.554
			c0,0,0.063,0-1.082,0c-1.145,0-3.675,0-3.675,0v-2.231c0,0-0.252-2.845,5.41-3.245c0,0,2.456-0.046,4.701-0.046
			c2.241,0,3.354,0.163,4.475,0.293c1.645,0.188,5.053,1.527,5.053,4.35C495.412,743.893,495.479,745.176,495.479,745.672z"/>
	</g>
</g>
<g id="rect5653_1_">
	<g>
		<path fill="#FFFFFF" d="M373.715,749.963c3.03,0,5.468-1.824,5.468-4.086v-6.415c0-2.262-2.438-4.086-5.468-4.086h-9.754
			c-3.029,0-5.456,1.824-5.456,4.086v6.415c0,2.262,2.427,4.086,5.456,4.086H373.715z M371.215,746.401h-4.921
			c-1.495,0-2.701-0.84-2.701-1.896v-3.649c0-1.057,1.206-1.909,2.701-1.909h4.921c1.495,0,2.69,0.853,2.69,1.909v3.649
			C373.905,745.562,372.71,746.401,371.215,746.401z"/>
	</g>
</g>
<g id="path6547_1_">
	<g>
		<path fill="#FFFFFF" d="M327.222,749.83c3.03,0,5.469-1.823,5.469-4.085v-6.417c0-2.262-2.439-4.084-5.469-4.084h-9.753
			c-3.029,0-5.457,1.822-5.457,4.084v6.417c0,2.262,2.428,4.085,5.457,4.085H327.222z M324.723,746.271H319.8
			c-1.494,0-2.7-0.842-2.7-1.898v-3.647c0-1.059,1.206-1.91,2.7-1.91h4.923c1.493,0,2.688,0.852,2.688,1.91v3.647
			C327.412,745.429,326.216,746.271,324.723,746.271z"/>
	</g>
</g>
<g id="path6549_1_">
	<g>
		<path fill="#FFFFFF" d="M467.347,750.319c3.029,0,5.468-1.822,5.468-4.084v-6.417c0-2.26-2.438-4.084-5.468-4.084h-9.754
			c-3.028,0-5.458,1.824-5.458,4.084v6.417c0,2.262,2.43,4.084,5.458,4.084H467.347z M464.848,746.76h-4.922
			c-1.495,0-2.701-0.841-2.701-1.898v-3.648c0-1.057,1.206-1.906,2.701-1.906h4.922c1.494,0,2.688,0.85,2.688,1.906v3.648
			C467.536,745.919,466.342,746.76,464.848,746.76z"/>
	</g>
</g>
<g id="path6555_1_">
	<g>
		<path fill="#FFFFFF" d="M416.946,736.054h5.46v8.233c0,0-0.043,2.169,2.342,2.169c2.383,0,1.234-0.023,3.617-0.023
			c2.384-0.52,2.362-2.687,2.362-2.687v-7.741h5.286v8.235c0,0-0.041,2.165,2.341,2.165c2.384,0,1.128,0.044,3.511,0.044
			c2.385-0.521,2.341-2.816,2.341-2.816v-7.585h5.461v13.936h-5.056v-1.38h-0.448c-0.507-0.023-0.595-0.052-1.202,0.654
			c-0.861,0.999-2.805,1.063-2.805,1.063h-3.943c0,0-3.879-0.048-4.514-2.477l-0.32-0.004c0,0-0.999,2.437-3.818,2.45
			c0,0-0.758-0.031-2.67,0.046c-5.645,0.222-7.818-2.637-7.973-4.634L416.946,736.054z"/>
	</g>
</g>
<g id="path1920_1_">
	<g>
		<path fill="#FFFFFF" d="M340.504,756.077l-0.067-7.989c2.175,2.175,3.739,1.953,3.739,1.953h6.717
			c5.7-0.246,5.201-4.621,5.201-4.621l-0.021-6.684c-0.276-3.005-5.401-3.428-5.401-3.428s-4.563,0-6.83,0
			c-2.268,0-2.948,1.831-2.948,1.831h-0.791v-1.708h-5.022v20.646H340.504z M347.814,746.37h-4.454
			c-1.621,0-2.923-0.786-2.923-1.755v-3.916c0-0.967,1.302-1.752,2.923-1.752h4.454c1.621,0,2.923,0.785,2.923,1.752v3.916
			C350.737,745.584,349.435,746.37,347.814,746.37z"/>
	</g>
</g>
<g id="path1928_1_">
	<g>
		<path fill="#FFFFFF" d="M309.598,749.656v-14.258l-5.418,0.044l0.043,7.843c0,0-0.174,2.061-2.47,2.73l-2.861,0.043
			c0,0-1.43,0-1.387-2.514l-5.026,0.044v2.903c0,0,0.303,3.425,3.64,3.425l3.901,0.043c0,0,2.391,0.346,3.77-2.038h0.78v1.734
			H309.598z"/>
	</g>
</g>
<g id="path1930_1_">
	<g>
		<path fill="#FFFFFF" d="M281.295,749.94c0.946-0.004,1.967-0.021,3.047-0.023c5.537-0.011,5.669-4.864,5.669-4.864
			s0.021-2.268,0.021-5.547c0-3.127-4.686-4.446-6.339-4.51c-0.728-0.027-3.408,0-8.403,0c-2.534,0.378-5.554,1.234-5.389,4.32
			h5.267c0.152-1.042,1.662-1.128,1.662-1.128s5.799,0.021,6.105,0.021c1.634,0,1.506,3.159,1.506,3.159h-14.575
			c0,0-0.009,0.655-0.011,1.027c-0.003,1.015,0.018,2.798,0.257,3.604C271.235,749.791,274.667,749.967,281.295,749.94z
			 M282.712,746.791c-0.052,0.006-0.105,0.003-0.156,0c-1.279,0-5.223,0-5.223,0s-2.064-0.059-2.064-1.338c0-1.724,0-1.237,0-1.237
			l9.218,0.044c0,0,0.006,0.48-0.067,1.239C284.37,745.994,283.484,746.732,282.712,746.791z"/>
	</g>
</g>
<g id="path2828_1_">
	<g>
		<path fill="#FFFFFF" d="M381.738,736.054h5.461v8.233c0,0-0.043,2.169,2.34,2.169c2.385,0,1.235-0.023,3.619-0.023
			c2.384-0.52,2.362-2.687,2.362-2.687v-7.741h5.286v8.235c0,0-0.043,2.165,2.341,2.165s1.126,0.044,3.511,0.044
			c2.383-0.521,2.34-2.816,2.34-2.816v-7.585h5.461v13.936h-5.055v-1.38h-0.447c-0.508-0.023-0.597-0.052-1.205,0.654
			c-0.86,0.999-2.803,1.063-2.803,1.063h-3.943c0,0-3.879-0.048-4.514-2.477l-0.321-0.004c0,0-0.999,2.437-3.819,2.45
			c0,0-0.756-0.031-2.668,0.046c-5.645,0.222-7.818-2.637-7.973-4.634L381.738,736.054z"/>
	</g>
</g>
<g id="path1888_1_">
	<path sodipodi:nodetypes="ccccc" fill="#FFFFFF" d="M379.62,708.94l3.685,13.087l-12.837,3.927l-4.271-13.087L379.62,708.94z"/>
</g>
<g id="path1960_1_">
	<path sodipodi:nodetypes="csssssscccssssssssssccccccssc" fill="#FFFFFF" d="M336.486,646.534
		c4.961,0.518,8.846,2.229,12.683,5.589c5.313,4.651,8.035,9.313,9.381,16.068c0.572,2.871,0.575,9.441,0.004,12.087
		c-1.215,5.64-4.146,11.143-8.197,15.392c-2.331,2.443-4.255,3.897-6.798,5.136c-3.058,1.493-5.043,1.947-9.081,2.079
		c-6.649,0.22-11.107-0.864-16.676-4.05l-2.454-1.406v-11.026c0.968,0.164,2.713-0.432,3.399,0.337c0,0.666,1.643,5.245,2.4,6.692
		c1.713,3.271,4.459,5.75,7.57,6.828c1.22,0.423,1.94,0.51,4.191,0.502c4.515-0.017,7.496-1.104,9.807-3.58
		c2.466-2.644,3.636-6.059,4.121-12.035c0.312-3.84,0.3-19.414-0.016-22.357c-0.888-8.245-3.769-12.465-9.493-13.91
		c-2.112-0.534-6.394-0.343-8.252,0.366c-1.626,0.621-3.149,1.974-3.908,3.471c-0.932,1.839-1.201,3.706-1.205,8.366l-0.004,4.248
		h8.158v2.041h-19.999l0.158-2.322c0.306-4.471,1.151-7.295,3.065-10.22c2.655-4.06,7.506-7.118,12.809-8.074
		C330.111,646.4,334.178,646.293,336.486,646.534z"/>
</g>
<g id="path1958_1_">
	<path sodipodi:nodetypes="ccssccccccccccc" fill="#FFFFFF" d="M499.105,647.43l-20.104,55.402l-2.794-0.045
		c-0.208-0.004-18.559-52.742-18.559-53.016l-5.892-0.075v-2.267h15.81l5.825,16.32l17.427-0.119l5.746-16.201H499.105z
		 M474.41,666.18l7.355,22.009l8.049-22.178L474.41,666.18z"/>
</g>
<g id="path1954_1_">
	<path sodipodi:nodetypes="cccccccccccccccccc" fill="#FFFFFF" d="M448.584,699.547h7.932v2.038h-20.961l-11.188-36.295
		l-11.689,36.295h-12.584v-51.889h-7.478v-2.267h17.901l0.117,50.489l16.217-50.489h2.882l16.114,50.644l0.018-50.644h2.719V699.547
		z"/>
</g>
<g id="path1952_1_">
	<path sodipodi:nodetypes="ccccccccccc" fill="#FFFFFF" d="M389.218,649.696h-7.478v51.889h-18.354v-2.038h7.93v-49.851h-7.93
		v-2.267h25.832V649.696z"/>
</g>
<g id="path1970_1_">
	<path sodipodi:nodetypes="ccssccccccccccc" fill="#FFFFFF" d="M310.342,647.43l-20.105,55.402l-2.794-0.045
		c-0.207-0.004-18.558-52.742-18.558-53.016l-5.892-0.075v-2.267h15.809l5.826,16.32l17.426-0.119l5.747-16.201H310.342z
		 M285.647,666.18l7.354,22.009l8.05-22.178L285.647,666.18z"/>
</g>
<g>
	<path fill="#FFFFFF" d="M345.053,261.332c-0.217,0.104-0.377,0.046-0.479-0.172l-9.016-19.098l-2.682,7.812
		c-0.074,0.095-0.159,0.163-0.255,0.209c-0.072,0.034-0.144,0.039-0.215,0.013l-2.271-0.874l0.017,0.036
		c-0.083,0.01-0.16-0.057-0.228-0.202c-0.045-0.096-0.049-0.198-0.011-0.304l0.017,0.035l3.08-9.592
		c0.051-0.142,0.113-0.23,0.185-0.265l3.328-1.571c0.217-0.102,0.383-0.032,0.497,0.209l10.484,22.209
		c0.103,0.217,0.045,0.377-0.172,0.479L345.053,261.332z"/>
</g>
<g>
	<path fill="#FFFFFF" d="M371.886,251.82c-1.183,1.416-3.582,2.534-7.196,3.354l-5.033,1.141c-3.303,0.75-5.778,0.928-7.425,0.535
		c-2.641-0.549-4.291-2.28-4.951-5.193c-0.053-0.234,0.011-0.371,0.194-0.412l2.497-0.566c0.208-0.047,0.338,0.046,0.392,0.279
		c0.197,0.75,0.521,1.366,0.973,1.852c0.452,0.486,1.048,0.795,1.79,0.928c1.12,0.237,2.656,0.135,4.606-0.307l7.412-1.681
		c1.17-0.265,2.104-0.579,2.801-0.942c0.697-0.363,1.228-0.764,1.594-1.203c0.707-0.98,0.813-2.563,0.318-4.747l-0.628-2.77
		c-0.448,0.676-1.114,1.237-1.997,1.683c-0.733,0.386-1.828,0.743-3.284,1.073l-8.465,1.919c-1.638,0.371-3.049,0.541-4.232,0.509
		c-1.184-0.032-2.159-0.235-2.927-0.608c-0.933-0.498-1.705-1.246-2.313-2.244c-0.609-0.996-1.087-2.262-1.435-3.796
		c-0.578-2.549-0.101-4.544,1.432-5.985l0.061-0.096c1.216-1.15,3.228-2.044,6.037-2.681l8.27-1.875
		c3.355-0.761,5.824-0.665,7.407,0.289c1.641,0.968,2.848,3.155,3.621,6.562l1.645,7.256
		C373.807,247.447,373.42,250.023,371.886,251.82z M367.751,235.572c-0.56-2.471-2.466-3.338-5.716-2.601l-9.948,2.255
		c-3.329,0.756-4.713,2.368-4.153,4.838l0.239,1.055c0.566,2.496,2.5,3.369,5.803,2.621l9.948-2.256
		c3.277-0.742,4.632-2.362,4.066-4.859L367.751,235.572z"/>
</g>
<g>
	<path fill="#FFFFFF" d="M401.072,253.237c-1.512,0.989-3.663,1.368-6.453,1.142l-10.326-0.844
		c-2.977-0.243-5.016-0.999-6.115-2.268c-1.232-1.307-1.729-3.397-1.495-6.273c0.211-2.58,1.345-4.176,3.401-4.785
		c-0.412-0.195-0.773-0.439-1.084-0.732s-0.6-0.611-0.865-0.955c-0.303-0.561-0.49-1.205-0.564-1.936
		c-0.074-0.729-0.071-1.586,0.01-2.571c0.36-4.419,3.291-6.403,8.793-5.954l10.326,0.842c2.816,0.23,4.848,0.92,6.092,2.066
		c1.389,1.346,1.97,3.402,1.744,6.172c-0.104,1.251-0.455,2.281-1.056,3.089c-0.602,0.809-1.409,1.358-2.423,1.651
		c0.875,0.42,1.521,1.035,1.937,1.846c0.026,0.002,0.039,0.018,0.036,0.043l0.041,0.004c0.248,0.557,0.422,1.214,0.521,1.973
		c0.099,0.758,0.105,1.656,0.021,2.693C403.432,250.65,402.584,252.249,401.072,253.237z M400.309,247.115
		c0.12-1.469-0.326-2.566-1.336-3.295c-0.08-0.006-0.133-0.023-0.156-0.053c-0.768-0.439-2.081-0.734-3.941-0.887l-8.85-0.723
		c-1.889-0.154-3.245-0.076-4.073,0.232c-1.136,0.472-1.768,1.496-1.896,3.07l-0.076,0.922c-0.119,1.47,0.305,2.486,1.276,3.049
		c0.33,0.215,0.811,0.396,1.44,0.541c0.631,0.146,1.357,0.252,2.182,0.319l9.887,0.808c1.648,0.135,2.887,0.047,3.714-0.262
		c1.05-0.398,1.634-1.332,1.754-2.801L400.309,247.115z M400.998,234.25c-0.199-0.51-0.555-0.908-1.066-1.189
		c-0.384-0.219-0.87-0.406-1.459-0.561c-0.59-0.155-1.311-0.268-2.16-0.338l-9.887-0.807c-0.957-0.078-1.773-0.085-2.447-0.02
		s-1.193,0.19-1.556,0.375c-0.87,0.49-1.374,1.587-1.513,3.287c-0.128,1.568,0.33,2.676,1.375,3.323
		c0.355,0.216,0.875,0.406,1.559,0.569c0.682,0.162,1.488,0.281,2.418,0.357l8.852,0.723c1.036,0.084,1.912,0.09,2.627,0.014
		c0.715-0.075,1.268-0.203,1.657-0.387c1.058-0.502,1.663-1.684,1.814-3.543C401.268,235.363,401.197,234.762,400.998,234.25z"/>
</g>
<g>
	<path fill="#FFFFFF" d="M410.086,257.822c-0.07,0.029-0.166,0.018-0.289-0.033l-3.256-1.339c-0.197-0.081-0.25-0.232-0.159-0.454
		c0.011-0.025,0.025-0.062,0.046-0.111c0.02-0.049,0.064-0.088,0.135-0.117l27.51-11.783l-22.345-9.189
		c-0.222-0.091-0.282-0.26-0.181-0.506l0.959-2.331c0.101-0.246,0.262-0.324,0.484-0.233l26.672,10.97
		c0.246,0.102,0.319,0.276,0.219,0.522l-0.883,2.146c-0.051,0.124-0.111,0.2-0.181,0.229L410.086,257.822z"/>
</g>
<g>
	<path fill="#FFFFFF" d="M419.114,786.826c0.217-0.104,0.377-0.046,0.479,0.172l9.016,19.098l2.682-7.812
		c0.073-0.095,0.158-0.163,0.255-0.209c0.072-0.034,0.144-0.039,0.216-0.013l2.27,0.874l-0.017-0.036
		c0.083-0.01,0.159,0.057,0.228,0.202c0.046,0.096,0.049,0.198,0.012,0.304l-0.018-0.035l-3.08,9.592
		c-0.051,0.142-0.112,0.23-0.185,0.265l-3.327,1.571c-0.218,0.102-0.383,0.032-0.497-0.209l-10.483-22.209
		c-0.104-0.217-0.046-0.377,0.172-0.479L419.114,786.826z"/>
</g>
<g>
	<path fill="#FFFFFF" d="M392.281,796.338c1.184-1.416,3.582-2.534,7.196-3.354l5.032-1.141c3.303-0.75,5.778-0.928,7.426-0.535
		c2.641,0.549,4.291,2.28,4.951,5.193c0.053,0.234-0.012,0.371-0.193,0.412l-2.497,0.566c-0.208,0.047-0.339-0.046-0.392-0.279
		c-0.197-0.75-0.521-1.366-0.973-1.852c-0.452-0.486-1.049-0.795-1.79-0.928c-1.12-0.237-2.655-0.135-4.606,0.307l-7.412,1.681
		c-1.17,0.265-2.104,0.579-2.801,0.942s-1.228,0.764-1.594,1.203c-0.707,0.98-0.813,2.563-0.317,4.747l0.628,2.77
		c0.448-0.676,1.113-1.237,1.997-1.683c0.733-0.386,1.828-0.743,3.284-1.073l8.465-1.919c1.639-0.371,3.05-0.541,4.232-0.509
		c1.184,0.032,2.159,0.235,2.928,0.608c0.933,0.498,1.704,1.246,2.313,2.244c0.609,0.996,1.088,2.262,1.436,3.796
		c0.578,2.549,0.101,4.544-1.432,5.985l-0.061,0.096c-1.217,1.15-3.229,2.044-6.037,2.681l-8.27,1.875
		c-3.355,0.761-5.824,0.665-7.408-0.289c-1.641-0.968-2.848-3.155-3.62-6.562l-1.646-7.256
		C390.361,800.711,390.748,798.135,392.281,796.338z M396.416,812.586c0.561,2.471,2.467,3.338,5.717,2.601l9.947-2.255
		c3.33-0.756,4.713-2.368,4.153-4.838l-0.239-1.055c-0.565-2.496-2.5-3.369-5.803-2.621l-9.947,2.256
		c-3.277,0.742-4.633,2.362-4.066,4.859L396.416,812.586z"/>
</g>
<g>
	<path fill="#FFFFFF" d="M363.095,794.921c1.512-0.989,3.664-1.368,6.454-1.142l10.326,0.844c2.977,0.243,5.015,0.999,6.115,2.268
		c1.231,1.307,1.729,3.397,1.494,6.273c-0.211,2.58-1.344,4.176-3.4,4.785c0.412,0.195,0.773,0.439,1.084,0.732
		s0.6,0.611,0.865,0.955c0.303,0.561,0.49,1.205,0.564,1.936c0.074,0.729,0.07,1.586-0.01,2.571
		c-0.361,4.419-3.292,6.403-8.793,5.954l-10.326-0.842c-2.817-0.23-4.848-0.92-6.092-2.066c-1.388-1.346-1.97-3.402-1.744-6.172
		c0.103-1.251,0.454-2.281,1.055-3.089c0.602-0.809,1.409-1.358,2.422-1.651c-0.875-0.42-1.521-1.035-1.936-1.846
		c-0.026-0.002-0.039-0.018-0.037-0.043l-0.04-0.004c-0.249-0.557-0.422-1.214-0.521-1.973c-0.099-0.758-0.105-1.656-0.021-2.693
		C360.736,797.508,361.583,795.909,363.095,794.921z M363.859,801.043c-0.12,1.469,0.326,2.566,1.336,3.295
		c0.08,0.006,0.132,0.023,0.156,0.053c0.767,0.439,2.081,0.734,3.941,0.887l8.85,0.723c1.888,0.154,3.244,0.076,4.072-0.232
		c1.137-0.472,1.768-1.496,1.896-3.07l0.075-0.922c0.12-1.47-0.305-2.486-1.276-3.049c-0.33-0.215-0.811-0.396-1.44-0.541
		s-1.356-0.252-2.181-0.319l-9.888-0.808c-1.647-0.135-2.886-0.047-3.713,0.262c-1.049,0.398-1.634,1.332-1.754,2.801
		L363.859,801.043z M363.169,813.908c0.199,0.51,0.555,0.908,1.067,1.189c0.383,0.219,0.87,0.406,1.459,0.561
		c0.589,0.155,1.31,0.268,2.16,0.338l9.887,0.807c0.957,0.078,1.773,0.085,2.447,0.02s1.192-0.19,1.555-0.375
		c0.87-0.49,1.374-1.587,1.513-3.287c0.128-1.568-0.329-2.676-1.374-3.323c-0.356-0.216-0.876-0.406-1.559-0.569
		c-0.682-0.162-1.488-0.281-2.419-0.357l-8.851-0.723c-1.037-0.084-1.912-0.09-2.627-0.014c-0.715,0.075-1.267,0.203-1.657,0.387
		c-1.058,0.502-1.663,1.684-1.814,3.543C362.899,812.795,362.971,813.396,363.169,813.908z"/>
</g>
<g>
	<path fill="#FFFFFF" d="M354.082,790.336c0.07-0.029,0.167-0.018,0.29,0.033l3.255,1.339c0.198,0.081,0.25,0.232,0.159,0.454
		c-0.01,0.025-0.025,0.062-0.046,0.111c-0.02,0.049-0.064,0.088-0.135,0.117l-27.509,11.783l22.344,9.189
		c0.222,0.091,0.282,0.26,0.181,0.506l-0.958,2.331c-0.101,0.246-0.263,0.324-0.485,0.233l-26.672-10.97
		c-0.246-0.102-0.318-0.276-0.218-0.522l0.883-2.146c0.051-0.124,0.111-0.2,0.181-0.229L354.082,790.336z"/>
</g>
</svg>
