<?xml version="1.0" encoding="utf-8"?>
<!-- Generator: Adobe Illustrator 15.0.0, SVG Export Plug-In . SVG Version: 6.00 Build 0)  -->
<!DOCTYPE svg PUBLIC "-//W3C//DTD SVG 1.1//EN" "http://www.w3.org/Graphics/SVG/1.1/DTD/svg11.dtd">
<svg version="1.1" id="Layer_1" xmlns="http://www.w3.org/2000/svg" xmlns:xlink="http://www.w3.org/1999/xlink" x="0px" y="0px"
	 width="1024px" height="768px" viewBox="0 0 1024 768" enable-background="new 0 0 1024 768" xml:space="preserve">
<linearGradient id="SVGID_1_" gradientUnits="userSpaceOnUse" x1="511.9995" y1="9" x2="511.9995" y2="764.3204">
	<stop  offset="0" style="stop-color:#FFFFFF"/>
	<stop  offset="0.0157" style="stop-color:#F1F5F7"/>
	<stop  offset="0.0473" style="stop-color:#DBE6EA"/>
	<stop  offset="0.0847" style="stop-color:#CADAE0"/>
	<stop  offset="0.1309" style="stop-color:#BFD1D9"/>
	<stop  offset="0.1958" style="stop-color:#B8CCD5"/>
	<stop  offset="0.3758" style="stop-color:#B6CBD4"/>
	<stop  offset="0.6749" style="stop-color:#B8CCD5"/>
	<stop  offset="0.7826" style="stop-color:#BFD1D9"/>
	<stop  offset="0.8594" style="stop-color:#CADAE0"/>
	<stop  offset="0.9214" style="stop-color:#DBE6EA"/>
	<stop  offset="0.974" style="stop-color:#F1F5F7"/>
	<stop  offset="1" style="stop-color:#FFFFFF"/>
</linearGradient>
<rect y="9" fill="url(#SVGID_1_)" width="1024" height="759"/>
<g>
	<linearGradient id="SVGID_2_" gradientUnits="userSpaceOnUse" x1="865" y1="10" x2="864.9999" y2="767.2384">
		<stop  offset="0" style="stop-color:#FFFFFF"/>
		<stop  offset="0.0512" style="stop-color:#E7EEF1"/>
		<stop  offset="0.1133" style="stop-color:#D1DEE4"/>
		<stop  offset="0.1819" style="stop-color:#C2D3DB"/>
		<stop  offset="0.2612" style="stop-color:#B9CDD6"/>
		<stop  offset="0.3758" style="stop-color:#B6CBD4"/>
		<stop  offset="0.5993" style="stop-color:#B8CDD5"/>
		<stop  offset="0.7238" style="stop-color:#C0D2DA"/>
		<stop  offset="0.8241" style="stop-color:#CEDCE2"/>
		<stop  offset="0.9113" style="stop-color:#E2EAEE"/>
		<stop  offset="0.9894" style="stop-color:#FBFCFD"/>
		<stop  offset="1" style="stop-color:#FFFFFF"/>
	</linearGradient>
	<rect x="833" y="9" fill="url(#SVGID_2_)" width="64" height="758"/>
	<linearGradient id="SVGID_3_" gradientUnits="userSpaceOnUse" x1="737.5" y1="10" x2="737.4999" y2="767.2384">
		<stop  offset="0" style="stop-color:#FFFFFF"/>
		<stop  offset="0.0512" style="stop-color:#E7EEF1"/>
		<stop  offset="0.1133" style="stop-color:#D1DEE4"/>
		<stop  offset="0.1819" style="stop-color:#C2D3DB"/>
		<stop  offset="0.2612" style="stop-color:#B9CDD6"/>
		<stop  offset="0.3758" style="stop-color:#B6CBD4"/>
		<stop  offset="0.5993" style="stop-color:#B8CDD5"/>
		<stop  offset="0.7238" style="stop-color:#C0D2DA"/>
		<stop  offset="0.8241" style="stop-color:#CEDCE2"/>
		<stop  offset="0.9113" style="stop-color:#E2EAEE"/>
		<stop  offset="0.9894" style="stop-color:#FBFCFD"/>
		<stop  offset="1" style="stop-color:#FFFFFF"/>
	</linearGradient>
	<rect x="705" y="9" fill="url(#SVGID_3_)" width="65" height="758"/>
	<linearGradient id="SVGID_4_" gradientUnits="userSpaceOnUse" x1="609" y1="10" x2="608.9999" y2="767.2384">
		<stop  offset="0" style="stop-color:#FFFFFF"/>
		<stop  offset="0.0512" style="stop-color:#E7EEF1"/>
		<stop  offset="0.1133" style="stop-color:#D1DEE4"/>
		<stop  offset="0.1819" style="stop-color:#C2D3DB"/>
		<stop  offset="0.2612" style="stop-color:#B9CDD6"/>
		<stop  offset="0.3758" style="stop-color:#B6CBD4"/>
		<stop  offset="0.5993" style="stop-color:#B8CDD5"/>
		<stop  offset="0.7238" style="stop-color:#C0D2DA"/>
		<stop  offset="0.8241" style="stop-color:#CEDCE2"/>
		<stop  offset="0.9113" style="stop-color:#E2EAEE"/>
		<stop  offset="0.9894" style="stop-color:#FBFCFD"/>
		<stop  offset="1" style="stop-color:#FFFFFF"/>
	</linearGradient>
	<rect x="577" y="9" fill="url(#SVGID_4_)" width="64" height="758"/>
	<linearGradient id="SVGID_5_" gradientUnits="userSpaceOnUse" x1="481.4995" y1="10" x2="481.4995" y2="767.2384">
		<stop  offset="0" style="stop-color:#FFFFFF"/>
		<stop  offset="0.0512" style="stop-color:#E7EEF1"/>
		<stop  offset="0.1133" style="stop-color:#D1DEE4"/>
		<stop  offset="0.1819" style="stop-color:#C2D3DB"/>
		<stop  offset="0.2612" style="stop-color:#B9CDD6"/>
		<stop  offset="0.3758" style="stop-color:#B6CBD4"/>
		<stop  offset="0.5993" style="stop-color:#B8CDD5"/>
		<stop  offset="0.7238" style="stop-color:#C0D2DA"/>
		<stop  offset="0.8241" style="stop-color:#CEDCE2"/>
		<stop  offset="0.9113" style="stop-color:#E2EAEE"/>
		<stop  offset="0.9894" style="stop-color:#FBFCFD"/>
		<stop  offset="1" style="stop-color:#FFFFFF"/>
	</linearGradient>
	<rect x="449" y="9" fill="url(#SVGID_5_)" width="65" height="758"/>
	<linearGradient id="SVGID_6_" gradientUnits="userSpaceOnUse" x1="353" y1="10" x2="353" y2="767.2384">
		<stop  offset="0" style="stop-color:#FFFFFF"/>
		<stop  offset="0.0512" style="stop-color:#E7EEF1"/>
		<stop  offset="0.1133" style="stop-color:#D1DEE4"/>
		<stop  offset="0.1819" style="stop-color:#C2D3DB"/>
		<stop  offset="0.2612" style="stop-color:#B9CDD6"/>
		<stop  offset="0.3758" style="stop-color:#B6CBD4"/>
		<stop  offset="0.5993" style="stop-color:#B8CDD5"/>
		<stop  offset="0.7238" style="stop-color:#C0D2DA"/>
		<stop  offset="0.8241" style="stop-color:#CEDCE2"/>
		<stop  offset="0.9113" style="stop-color:#E2EAEE"/>
		<stop  offset="0.9894" style="stop-color:#FBFCFD"/>
		<stop  offset="1" style="stop-color:#FFFFFF"/>
	</linearGradient>
	<rect x="321" y="9" fill="url(#SVGID_6_)" width="64" height="758"/>
	<linearGradient id="SVGID_7_" gradientUnits="userSpaceOnUse" x1="225.5" y1="10" x2="225.5" y2="767.2384">
		<stop  offset="0" style="stop-color:#FFFFFF"/>
		<stop  offset="0.0512" style="stop-color:#E7EEF1"/>
		<stop  offset="0.1133" style="stop-color:#D1DEE4"/>
		<stop  offset="0.1819" style="stop-color:#C2D3DB"/>
		<stop  offset="0.2612" style="stop-color:#B9CDD6"/>
		<stop  offset="0.3758" style="stop-color:#B6CBD4"/>
		<stop  offset="0.5993" style="stop-color:#B8CDD5"/>
		<stop  offset="0.7238" style="stop-color:#C0D2DA"/>
		<stop  offset="0.8241" style="stop-color:#CEDCE2"/>
		<stop  offset="0.9113" style="stop-color:#E2EAEE"/>
		<stop  offset="0.9894" style="stop-color:#FBFCFD"/>
		<stop  offset="1" style="stop-color:#FFFFFF"/>
	</linearGradient>
	<rect x="193" y="9" fill="url(#SVGID_7_)" width="65" height="758"/>
	<linearGradient id="SVGID_8_" gradientUnits="userSpaceOnUse" x1="97" y1="10" x2="97" y2="767.2384">
		<stop  offset="0" style="stop-color:#FFFFFF"/>
		<stop  offset="0.0512" style="stop-color:#E7EEF1"/>
		<stop  offset="0.1133" style="stop-color:#D1DEE4"/>
		<stop  offset="0.1819" style="stop-color:#C2D3DB"/>
		<stop  offset="0.2612" style="stop-color:#B9CDD6"/>
		<stop  offset="0.3758" style="stop-color:#B6CBD4"/>
		<stop  offset="0.5993" style="stop-color:#B8CDD5"/>
		<stop  offset="0.7238" style="stop-color:#C0D2DA"/>
		<stop  offset="0.8241" style="stop-color:#CEDCE2"/>
		<stop  offset="0.9113" style="stop-color:#E2EAEE"/>
		<stop  offset="0.9894" style="stop-color:#FBFCFD"/>
		<stop  offset="1" style="stop-color:#FFFFFF"/>
	</linearGradient>
	<rect x="65" y="9" fill="url(#SVGID_8_)" width="64" height="758"/>
	<linearGradient id="SVGID_9_" gradientUnits="userSpaceOnUse" x1="991.5" y1="10" x2="991.4999" y2="767.2384">
		<stop  offset="0" style="stop-color:#FFFFFF"/>
		<stop  offset="0.0512" style="stop-color:#E7EEF1"/>
		<stop  offset="0.1133" style="stop-color:#D1DEE4"/>
		<stop  offset="0.1819" style="stop-color:#C2D3DB"/>
		<stop  offset="0.2612" style="stop-color:#B9CDD6"/>
		<stop  offset="0.3758" style="stop-color:#B6CBD4"/>
		<stop  offset="0.5993" style="stop-color:#B8CDD5"/>
		<stop  offset="0.7238" style="stop-color:#C0D2DA"/>
		<stop  offset="0.8241" style="stop-color:#CEDCE2"/>
		<stop  offset="0.9113" style="stop-color:#E2EAEE"/>
		<stop  offset="0.9894" style="stop-color:#FBFCFD"/>
		<stop  offset="1" style="stop-color:#FFFFFF"/>
	</linearGradient>
	<rect x="959" y="9" fill="url(#SVGID_9_)" width="65" height="758"/>
</g>
<polygon fill="#3D3659" points="0,768 0,509 5,509 5,470 13,470 13,394 18,394 18,387 29.423,387 38.604,393 56,393 56,490 61,490 
	61,499 67,499 67,477 69,477 69,472.295 78.547,469.026 87,472.513 87,477 89,477 89,500 94,500 94,425 119.269,425 126,447.231 
	126,494.09 133,499.538 133,458 138,458 138,455 140,455 140,451 145,451 145,433 147,433 147,427.615 155.5,418.898 164,428.052 
	164,434 167,434 167,480 174,480 174,461 178,461 178,458 180,458 180,455 186,455 186,403 230,403 230,453 238,453 238,429 
	255,429 255,421 262,421 262,424 268,424 268,426 271,426 271,436 272,436 272,439.167 272,440.257 272,468 305.299,468 
	310,469.026 310,493 340.712,493 347.27,486 350,486 350,458 347,458 347,447 353,447 353,444 368,444 368,478 384.432,478 
	388.367,474 411,474 411,471 415,471 415,420 416,420 416,416 448.045,416 454,419.334 454,490 462,490 462,391 472,391 472,387 
	467,387 467,382 507,382 507,387 502,387 502,391 512,391 512,490.715 521,486.21 521,467 526,467 526,458 529,458 529,446 533,446 
	533,431 541,431 541,374 564.341,374 572,396.667 572,471 583,471 583,396.885 596.404,394.211 599.974,386 600.848,386 
	606.969,483 617.461,483 621.458,486 626,486 626,400.154 630,396.013 630,380 632,380 632,385.334 633,384.462 633,365.283 
	636,361.469 636,353.078 640,349.809 640,342 641.945,342 643,342 643,349.809 647,353.078 647,361.469 650,365.283 650,384.462 
	651,385.334 651,380 654,380 654,396.013 659,400.154 659,472 672,472 672,458.564 676.429,455.064 680.419,452 697,452 697,367 
	754,367 754,452 759,452 759,450 784,450 784,426 790,426 790,379 796,379 796,313 801,313 801,305.129 824.59,305.635 839,311.699 
	839,458 845,458 845,456 847,456 847,451 852,451 852,434 853,434 853,428.052 862,419.553 871,428.052 871,434 872,434 872,480 
	879,480 879,461 884,461 884,458 886,458 886,456 893,456 893,453.334 893,404 896,404 896,400 907,400 907,404 920,404 920,366 
	923,366 923,404 936,404 936,453 942,453 942,428 962,428 962,420 967,420 967,425 973,425 973,427 975,427 975,428 977,428 
	977,468 1015,468 1015,493 1024,493 1024,768 "/>
<g>
	<polygon fill="#413264" points="704.572,-0.044 768.653,-0.044 768.656,9 704.575,9 	"/>
	<g>
		<rect x="896.813" y="-0.044" fill="#BB426B" width="64.087" height="9.044"/>
		<rect x="960.899" y="-0.044" fill="#9C2C52" width="64.075" height="9.044"/>
		<rect x="832.731" y="-0.044" fill="#8A2F5C" width="64.081" height="9.044"/>
		<rect x="768.653" y="-0.044" fill="#6D416D" width="64.078" height="9.044"/>
		<rect x="576.409" y="-0.044" fill="#276686" width="64.084" height="9.044"/>
		<rect x="640.495" y="-0.044" fill="#5690A5" width="64.079" height="9.044"/>
		<rect x="512.333" y="-0.044" fill="#172327" width="64.078" height="9.044"/>
		<rect x="448.25" y="-0.044" fill="#19372C" width="64.081" height="9.044"/>
		<rect x="384.166" y="-0.044" fill="#327344" width="64.084" height="9.044"/>
		<rect x="256.01" y="-0.044" fill="#276686" width="64.084" height="9.044"/>
		<rect x="320.095" y="-0.044" fill="#5690A5" width="64.072" height="9.044"/>
		<rect x="191.927" y="-0.044" fill="#B08F42" width="64.084" height="9.044"/>
		<rect x="127.847" y="-0.044" fill="#B46839" width="64.078" height="9.044"/>
		<polygon fill="#A43941" points="63.766,-0.044 127.847,-0.044 127.85,9 63.769,9 		"/>
	</g>
</g>
<rect x="0.309" y="-0.044" fill="#B46839" width="64.078" height="9.044"/>
</svg>
