<?xml version="1.0" encoding="iso-8859-1"?>
<!-- Generator: Adobe Illustrator 16.0.4, SVG Export Plug-In . SVG Version: 6.00 Build 0)  -->
<!DOCTYPE svg PUBLIC "-//W3C//DTD SVG 1.1//EN" "http://www.w3.org/Graphics/SVG/1.1/DTD/svg11.dtd">
<svg version="1.1" id="Capa_1" xmlns="http://www.w3.org/2000/svg" xmlns:xlink="http://www.w3.org/1999/xlink" x="0px" y="0px"
	 width="40px" height="35.947px" viewBox="0 0 40 35.947" style="enable-background:new 0 0 40 35.947;" xml:space="preserve">
<g id="_x37_7._Messages">
	<g>
		<path d="M20,17c1.656,0,3-1.344,3-3c0-1.657-1.344-3-3-3c-1.657,0-3,1.343-3,3C17,15.656,18.343,17,20,17z M36,0H4
			C1.79,0,0,1.79,0,3.999v20c0,2.21,1.79,4,4,4h6v6c0,2.21,1.113,2.598,2.486,0.867l5.451-6.867H36c2.209,0,4-1.79,4-4v-20
			C40,1.79,38.209,0,36,0z M36,24H4V3.999h32V24z M28,17c1.656,0,3-1.344,3-3c0-1.657-1.344-3-3-3c-1.657,0-3,1.343-3,3
			C25,15.656,26.343,17,28,17z M12,17c1.656,0,3-1.344,3-3c0-1.657-1.344-3-3-3c-1.657,0-3,1.343-3,3C9,15.656,10.343,17,12,17z"/>
	</g>
</g>
<g>
</g>
<g>
</g>
<g>
</g>
<g>
</g>
<g>
</g>
<g>
</g>
<g>
</g>
<g>
</g>
<g>
</g>
<g>
</g>
<g>
</g>
<g>
</g>
<g>
</g>
<g>
</g>
<g>
</g>
</svg>
